<svg id="adobe-photoshop" xmlns="http://www.w3.org/2000/svg" width="85" height="85" viewBox="0 0 85 85">
  <g id="Grupo_53769" data-name="Grupo 53769">
    <circle id="Elipse_4052" data-name="Elipse 4052" cx="42.5" cy="42.5" r="42.5" fill="#29a3fb"/>
  </g>
  <g id="Grupo_53772" data-name="Grupo 53772" transform="translate(8.146 67.527)">
    <g id="Grupo_53771" data-name="Grupo 53771">
      <path id="Trazado_100473" data-name="Trazado 100473" d="M117.777,406.75a42.508,42.508,0,0,1-68.707,0Z" transform="translate(-49.07 -406.75)" fill="#d48d77"/>
      <g id="Grupo_53770" data-name="Grupo 53770" transform="translate(4.363)">
        <path id="Trazado_100474" data-name="Trazado 100474" d="M363.5,406.75v12.111c-1.107.616-2.242,1.186-3.4,1.7V406.75Z" transform="translate(-312.827 -406.75)" fill="#eea47d"/>
        <path id="Trazado_100475" data-name="Trazado 100475" d="M449.626,406.75q-1.24,1.7-2.646,3.275V406.75Z" transform="translate(-385.284 -406.75)" fill="#eea47d"/>
        <path id="Trazado_100476" data-name="Trazado 100476" d="M183.444,406.75v7.013a1.7,1.7,0,1,1-3.4,0V406.75Z" transform="translate(-162.661 -406.75)" fill="#eea47d"/>
        <path id="Trazado_100477" data-name="Trazado 100477" d="M288.622,429.4v11.493q-1.678.331-3.4.526V429.4a1.7,1.7,0,0,1,3.4,0Z" transform="translate(-250.378 -424.222)" fill="#eea47d"/>
        <path id="Trazado_100478" data-name="Trazado 100478" d="M410.122,426.14v1.939a41.425,41.425,0,0,1-3.4,2.761v-4.7A1.7,1.7,0,0,1,410.122,426.14Z" transform="translate(-351.707 -421.511)" fill="#eea47d"/>
        <path id="Trazado_100479" data-name="Trazado 100479" d="M231.55,406.75V424.2q-1.706-.046-3.4-.231V406.75Z" transform="translate(-202.783 -406.75)" fill="#eea47d"/>
        <path id="Trazado_100480" data-name="Trazado 100480" d="M146.6,452.128v5.683q-1.738-.672-3.4-1.491v-4.192A1.7,1.7,0,0,1,146.6,452.128Z" transform="translate(-131.936 -443.185)" fill="#eea47d"/>
        <path id="Trazado_100481" data-name="Trazado 100481" d="M78.75,406.836v8.042a42.875,42.875,0,0,1-3.4-3.041v-5c0-.028,0-.058,0-.086h3.4C78.75,406.78,78.75,406.808,78.75,406.836Z" transform="translate(-75.35 -406.75)" fill="#eea47d"/>
      </g>
    </g>
  </g>
  <g id="Grupo_53784" data-name="Grupo 53784" transform="translate(10.904 16.26)">
    <path id="Trazado_100482" data-name="Trazado 100482" d="M223.652,330.024h-8.93a2.863,2.863,0,0,0-2.863,2.863V344.68h14.656V332.887a2.863,2.863,0,0,0-2.863-2.863Z" transform="translate(-187.591 -291.495)" fill="#334353"/>
    <path id="Trazado_100483" data-name="Trazado 100483" d="M172.845,418.3H139.264a3.1,3.1,0,0,0,0,6.21h33.581a3.1,3.1,0,1,0,0-6.21Z" transform="translate(-124.458 -365.12)" fill="#334353"/>
    <path id="Trazado_100484" data-name="Trazado 100484" d="M204.727,418.3H184.021a1.914,1.914,0,0,0,0,3.829h20.706a1.914,1.914,0,0,0,0-3.829Z" transform="translate(-162.778 -365.12)" fill="#3e4e60"/>
    <path id="Trazado_100485" data-name="Trazado 100485" d="M128.872,102.688v35.034a4.767,4.767,0,0,1-3.459,4.574,4.645,4.645,0,0,1-1.287.181h-53.7a4.6,4.6,0,0,1-1.287-.181,4.767,4.767,0,0,1-3.459-4.574V102.688a4.75,4.75,0,0,1,4.746-4.746h53.7a4.681,4.681,0,0,1,1.287.179,4.749,4.749,0,0,1,3.459,4.568Z" transform="translate(-65.68 -97.942)" fill="#3f5d77"/>
    <path id="Trazado_100486" data-name="Trazado 100486" d="M72.6,103.586V138.62a4.773,4.773,0,0,1-3.462,4.574,4.767,4.767,0,0,1-3.459-4.574V103.586a4.743,4.743,0,0,1,3.459-4.568,4.745,4.745,0,0,1,3.462,4.568Z" transform="translate(-65.681 -98.839)" fill="#3e4e60"/>
    <path id="Trazado_100487" data-name="Trazado 100487" d="M411.553,103.586V138.62a3.481,3.481,0,1,1-6.921,0V103.586a3.595,3.595,0,1,1,6.921,0Z" transform="translate(-348.361 -98.839)" fill="#3f6c8e"/>
    <path id="Trazado_100488" data-name="Trazado 100488" d="M128.872,307.21v5.039a4.767,4.767,0,0,1-3.459,4.574,4.646,4.646,0,0,1-1.287.181h-53.7a4.6,4.6,0,0,1-1.287-.181,4.767,4.767,0,0,1-3.459-4.574V307.21Z" transform="translate(-65.68 -272.468)" fill="#3e4e60"/>
    <path id="Trazado_100489" data-name="Trazado 100489" d="M72.6,307.21v5.039a4.773,4.773,0,0,1-3.462,4.574,4.767,4.767,0,0,1-3.459-4.574V307.21Z" transform="translate(-65.681 -272.468)" fill="#334353"/>
    <path id="Trazado_100490" data-name="Trazado 100490" d="M411.553,307.21v5.039a3.481,3.481,0,1,1-6.921,0V307.21Z" transform="translate(-348.361 -272.468)" fill="#3f5d77"/>
    <path id="Trazado_100491" data-name="Trazado 100491" d="M231.934,336.7h-7.559a1.763,1.763,0,0,0,0,3.527h7.559a1.763,1.763,0,0,0,0-3.527Z" transform="translate(-196.558 -297.067)" fill="#334353"/>
    <path id="Trazado_100492" data-name="Trazado 100492" d="M219.206,101.4H196.715a1.73,1.73,0,0,1,0-3.461h22.491a1.73,1.73,0,0,1,0,3.461Z" transform="translate(-173.518 -97.942)" fill="#3f6c8e"/>
    <g id="Grupo_53783" data-name="Grupo 53783" transform="translate(3.46 3.461)">
      <path id="Trazado_100493" data-name="Trazado 100493" d="M139.8,153.685H89.521a3,3,0,0,1-3-3v-28.9a3,3,0,0,1,3-3H139.8a3,3,0,0,1,3,3v28.9A3,3,0,0,1,139.8,153.685Z" transform="translate(-86.524 -118.787)" fill="#cde6f6"/>
      <g id="Grupo_53776" data-name="Grupo 53776" transform="translate(6.549 4.332)">
        <g id="Grupo_53774" data-name="Grupo 53774">
          <g id="Grupo_53773" data-name="Grupo 53773">
            <path id="Trazado_100494" data-name="Trazado 100494" d="M152.208,152.55v15.874a2.688,2.688,0,0,1-2.688,2.689H128.662a2.689,2.689,0,0,1-2.689-2.689V147.566a2.689,2.689,0,0,1,2.689-2.688h15.875Z" transform="translate(-125.973 -144.878)" fill="#157dbc"/>
            <path id="Trazado_100495" data-name="Trazado 100495" d="M245.465,152.55h-4.982a2.688,2.688,0,0,1-2.688-2.688v-4.984Z" transform="translate(-219.23 -144.878)" fill="#3f5d77"/>
          </g>
        </g>
        <g id="Grupo_53775" data-name="Grupo 53775" transform="translate(4.478 7.802)">
          <path id="Trazado_100496" data-name="Trazado 100496" d="M153.244,203.567a1.081,1.081,0,0,1-.3-.8V192.9a1.008,1.008,0,0,1,.278-.759,1.056,1.056,0,0,1,.767-.27h4.148a4.291,4.291,0,0,1,2.968.953,3.9,3.9,0,0,1,0,5.353,4.265,4.265,0,0,1-2.967.961h-3.018v3.625A1.109,1.109,0,0,1,153.244,203.567Zm4.628-6.1q2.242,0,2.242-1.956t-2.242-1.956h-2.748v3.911h2.748Z" transform="translate(-152.949 -191.875)" fill="#fff"/>
          <path id="Trazado_100497" data-name="Trazado 100497" d="M214.4,220.42a1,1,0,0,1-.354-1.458c.379-.376.716-.2,1.248.059a3.835,3.835,0,0,0,3.229.287.739.739,0,0,0,.236-1.113,4.475,4.475,0,0,0-1.829-.641c-1.649-.383-2.74-.761-2.8-2.394.033-2.29,2.887-2.975,4.755-2.419a4.153,4.153,0,0,1,1.18.514c.9.449.609,2.049-.464,1.61a4.464,4.464,0,0,0-2.167-.733,1.7,1.7,0,0,0-.986.253.787.787,0,0,0,.008,1.332c1.049.546,3.462.564,4.122,1.737a2.33,2.33,0,0,1-.675,3C218.614,221.466,215.669,221.294,214.4,220.42Z" transform="translate(-203.749 -209.124)" fill="#fff"/>
        </g>
      </g>
      <g id="Pencil_10_" transform="translate(36.209 4.332)">
        <g id="Grupo_53777" data-name="Grupo 53777" transform="translate(1.031 6.233)">
          <path id="Trazado_100498" data-name="Trazado 100498" d="M310.844,182.422h3.9v14.863h-3.9Z" transform="translate(-310.844 -182.422)" fill="#f39e22"/>
          <path id="Trazado_100499" data-name="Trazado 100499" d="M311.979,183.556v12.6a1.135,1.135,0,0,1-1.134,1.134V182.422A1.134,1.134,0,0,1,311.979,183.556Z" transform="translate(-310.845 -182.422)" fill="#c68132"/>
          <path id="Trazado_100500" data-name="Trazado 100500" d="M328.629,182.422v14.863a1.135,1.135,0,0,1-1.135-1.134v-12.6a1.134,1.134,0,0,1,1.135-1.134Z" transform="translate(-324.73 -182.422)" fill="#f9c744"/>
        </g>
        <g id="Grupo_53778" data-name="Grupo 53778" transform="translate(0 21.096)">
          <path id="Trazado_100501" data-name="Trazado 100501" d="M310.594,272.853a.9.9,0,0,1-.9.9h-4.157a.9.9,0,0,1,0-1.806h4.157a.9.9,0,0,1,.9.9Z" transform="translate(-304.633 -271.95)" fill="#ebd9ea"/>
          <path id="Trazado_100502" data-name="Trazado 100502" d="M322.82,272.853h-2.625a.9.9,0,0,1-.9-.9h2.626a.9.9,0,0,1,.9.9Z" transform="translate(-316.858 -271.95)" fill="#fff"/>
          <path id="Trazado_100503" data-name="Trazado 100503" d="M309.843,280.043h-3.958a.9.9,0,0,1-.832-.554h3.958a.9.9,0,0,1,.832.554Z" transform="translate(-304.983 -278.237)" fill="#c1b7d3"/>
        </g>
        <g id="Grupo_53779" data-name="Grupo 53779" transform="translate(1.031 22.902)">
          <path id="Trazado_100504" data-name="Trazado 100504" d="M314.741,282.828v1.336a1.941,1.941,0,0,1-.68,1.479,1.378,1.378,0,0,1-.112.091,1.951,1.951,0,0,1-2.361-.037,1.692,1.692,0,0,1-.149-.131.279.279,0,0,1-.024-.023,1.94,1.94,0,0,1-.571-1.378v-1.336h3.9Z" transform="translate(-310.842 -282.828)" fill="#ee6781"/>
          <path id="Trazado_100505" data-name="Trazado 100505" d="M327.5,282.828v1.336a1.941,1.941,0,0,1-.68,1.479q-.056-.048-.109-.1a1.943,1.943,0,0,1-.571-1.378v-1.336Z" transform="translate(-323.599 -282.828)" fill="#f0a6b3"/>
          <path id="Trazado_100506" data-name="Trazado 100506" d="M312.034,282.828v1.336a1.935,1.935,0,0,1-.6,1.4.279.279,0,0,1-.024-.023,1.94,1.94,0,0,1-.571-1.378v-1.336Z" transform="translate(-310.843 -282.828)" fill="#d65171"/>
        </g>
        <path id="Trazado_100507" data-name="Trazado 100507" d="M314.741,161.989h-3.9l1.63-4.067h.639l1.32,3.3Z" transform="translate(-309.811 -155.756)" fill="#f5b890"/>
        <path id="Trazado_100508" data-name="Trazado 100508" d="M320.175,161.218H318.2a.474.474,0,0,1-.439-.649l1.061-2.647h.032Z" transform="translate(-315.554 -155.756)" fill="#fbd9a3"/>
        <g id="Grupo_53780" data-name="Grupo 53780" transform="translate(2.567)">
          <path id="Trazado_100509" data-name="Trazado 100509" d="M320.922,145.292v1.923a.414.414,0,0,1-.828,0v-1.923a.414.414,0,0,1,.348-.408.4.4,0,0,1,.066-.005A.414.414,0,0,1,320.922,145.292Z" transform="translate(-320.094 -144.878)" fill="#2e3140"/>
          <path id="Trazado_100510" data-name="Trazado 100510" d="M322.669,145.292v1.177a.4.4,0,0,1-.066.005.414.414,0,0,1-.414-.414v-1.177a.4.4,0,0,1,.066-.005A.414.414,0,0,1,322.669,145.292Z" transform="translate(-321.841 -144.878)" fill="#334353"/>
        </g>
      </g>
      <g id="Ruler_7_" transform="translate(43.987 4.332)">
        <g id="Grupo_53781" data-name="Grupo 53781" transform="translate(0)">
          <path id="Trazado_100511" data-name="Trazado 100511" d="M352.073,144.878h3.741a.591.591,0,0,1,.592.592v25.052a.591.591,0,0,1-.592.592h-3.741a.591.591,0,0,1-.591-.592V145.47A.591.591,0,0,1,352.073,144.878Z" transform="translate(-351.481 -144.878)" fill="#e9465e"/>
          <path id="Trazado_100512" data-name="Trazado 100512" d="M352.713,144.878h-.64a.591.591,0,0,0-.591.592v25.052a.591.591,0,0,0,.591.592h.64Z" transform="translate(-351.481 -144.878)" fill="#ee6781"/>
        </g>
        <g id="Grupo_53782" data-name="Grupo 53782" transform="translate(0 1.047)">
          <path id="Trazado_100513" data-name="Trazado 100513" d="M351.481,151.632h1.9a.223.223,0,1,0,0-.447h-1.9Z" transform="translate(-351.481 -151.185)" fill="#f0a6b3"/>
          <path id="Trazado_100514" data-name="Trazado 100514" d="M351.481,187.313h1.9a.223.223,0,1,0,0-.447h-1.9Z" transform="translate(-351.481 -180.942)" fill="#f0a6b3"/>
          <path id="Trazado_100515" data-name="Trazado 100515" d="M351.481,158.768h1.16a.223.223,0,1,0,0-.447h-1.16Z" transform="translate(-351.481 -157.136)" fill="#f0a6b3"/>
          <path id="Trazado_100516" data-name="Trazado 100516" d="M351.481,165.9h1.16a.223.223,0,1,0,0-.447h-1.16Z" transform="translate(-351.481 -163.088)" fill="#f0a6b3"/>
          <path id="Trazado_100517" data-name="Trazado 100517" d="M351.481,173.041h1.16a.223.223,0,1,0,0-.447h-1.16Z" transform="translate(-351.481 -169.04)" fill="#f0a6b3"/>
          <path id="Trazado_100518" data-name="Trazado 100518" d="M351.481,180.177h1.16a.223.223,0,1,0,0-.447h-1.16Z" transform="translate(-351.481 -174.991)" fill="#f0a6b3"/>
          <path id="Trazado_100519" data-name="Trazado 100519" d="M351.481,222.993h1.9a.223.223,0,1,0,0-.447h-1.9Z" transform="translate(-351.481 -210.699)" fill="#f0a6b3"/>
          <path id="Trazado_100520" data-name="Trazado 100520" d="M351.481,194.449h1.16a.223.223,0,1,0,0-.447h-1.16Z" transform="translate(-351.481 -186.894)" fill="#f0a6b3"/>
          <path id="Trazado_100521" data-name="Trazado 100521" d="M351.481,201.585h1.16a.223.223,0,0,0,0-.447h-1.16Z" transform="translate(-351.481 -192.845)" fill="#f0a6b3"/>
          <path id="Trazado_100522" data-name="Trazado 100522" d="M351.481,208.721h1.16a.223.223,0,1,0,0-.447h-1.16Z" transform="translate(-351.481 -198.796)" fill="#f0a6b3"/>
          <path id="Trazado_100523" data-name="Trazado 100523" d="M351.481,215.857h1.16a.223.223,0,1,0,0-.447h-1.16Z" transform="translate(-351.481 -204.748)" fill="#f0a6b3"/>
          <path id="Trazado_100524" data-name="Trazado 100524" d="M351.481,258.674h1.9a.223.223,0,1,0,0-.447h-1.9Z" transform="translate(-351.481 -240.456)" fill="#f0a6b3"/>
          <path id="Trazado_100525" data-name="Trazado 100525" d="M351.481,230.129h1.16a.223.223,0,1,0,0-.447h-1.16Z" transform="translate(-351.481 -216.65)" fill="#f0a6b3"/>
          <path id="Trazado_100526" data-name="Trazado 100526" d="M351.481,237.265h1.16a.223.223,0,1,0,0-.447h-1.16Z" transform="translate(-351.481 -222.602)" fill="#f0a6b3"/>
          <path id="Trazado_100527" data-name="Trazado 100527" d="M351.481,244.4h1.16a.223.223,0,1,0,0-.447h-1.16Z" transform="translate(-351.481 -228.554)" fill="#f0a6b3"/>
          <path id="Trazado_100528" data-name="Trazado 100528" d="M351.481,251.538h1.16a.223.223,0,1,0,0-.447h-1.16Z" transform="translate(-351.481 -234.505)" fill="#f0a6b3"/>
          <path id="Trazado_100529" data-name="Trazado 100529" d="M351.481,294.354h1.9a.223.223,0,0,0,0-.447h-1.9Z" transform="translate(-351.481 -270.213)" fill="#f0a6b3"/>
          <path id="Trazado_100530" data-name="Trazado 100530" d="M351.481,265.81h1.16a.223.223,0,1,0,0-.447h-1.16Z" transform="translate(-351.481 -246.408)" fill="#f0a6b3"/>
          <path id="Trazado_100531" data-name="Trazado 100531" d="M351.481,272.946h1.16a.223.223,0,0,0,0-.447h-1.16Z" transform="translate(-351.481 -252.359)" fill="#f0a6b3"/>
          <path id="Trazado_100532" data-name="Trazado 100532" d="M351.481,280.082h1.16a.223.223,0,0,0,0-.447h-1.16Z" transform="translate(-351.481 -258.31)" fill="#f0a6b3"/>
          <path id="Trazado_100533" data-name="Trazado 100533" d="M351.481,287.218h1.16a.223.223,0,0,0,0-.447h-1.16Z" transform="translate(-351.481 -264.262)" fill="#f0a6b3"/>
        </g>
      </g>
    </g>
  </g>
</svg>
