<svg xmlns="http://www.w3.org/2000/svg" xmlns:xlink="http://www.w3.org/1999/xlink" width="85" height="85" viewBox="0 0 85 85">
  <defs>
    <clipPath id="clip-path">
      <rect id="Rectángulo_5382" data-name="Rectángulo 5382" width="85" height="85" transform="translate(180 3649)" fill="#fff" stroke="#707070" stroke-width="1"/>
    </clipPath>
  </defs>
  <g id="Enmascarar_grupo_49" data-name="Enmascarar grupo 49" transform="translate(-180 -3649)" clip-path="url(#clip-path)">
    <g id="color" transform="translate(178.629 3647.629)">
      <path id="Trazado_100549" data-name="Trazado 100549" d="M68.467,46.613a9.557,9.557,0,0,1,9.165,12.524A38.476,38.476,0,1,1,35.863,8.6a10.5,10.5,0,0,1,8.807,3.057,10.651,10.651,0,0,1,0,15.081l-1.2,1.2a10.942,10.942,0,0,0,7.751,18.681Z" fill="#d8d8d8"/>
      <circle id="Elipse_4059" data-name="Elipse 4059" cx="6.855" cy="6.855" r="6.855" transform="translate(43.871 64.435)" fill="#e1656e"/>
      <path id="Trazado_100550" data-name="Trazado 100550" d="M43.871,71.29a6.792,6.792,0,0,0,1.572,4.32A6.829,6.829,0,0,0,53.4,64.984a6.855,6.855,0,0,0-9.534,6.306Z" fill="#f29b99"/>
      <path id="Trazado_100551" data-name="Trazado 100551" d="M57.58,54.838,84.21,11.017a5.452,5.452,0,0,0-6.391-7.993H77.8a5.458,5.458,0,0,0-3.212,2.849L53.468,50.7" fill="#976947"/>
      <path id="Trazado_100552" data-name="Trazado 100552" d="M64.317,43.753,59.167,38.6l-5.7,12.1v.027l4.113,4.113Z" fill="#674025"/>
      <circle id="Elipse_4060" data-name="Elipse 4060" cx="6.855" cy="6.855" r="6.855" transform="translate(24.677 63.064)" fill="#b52f28"/>
      <path id="Trazado_100553" data-name="Trazado 100553" d="M57.58,54.838A21.72,21.72,0,0,1,36.51,71.29H34.274l2.71-2.71a9.471,9.471,0,0,0,2.773-6.7,9.47,9.47,0,0,1,6.747-9.07l6.962-2.088Z" fill="#c18e59"/>
      <path id="Trazado_100554" data-name="Trazado 100554" d="M56.547,53.8l-3.079-3.079-6.962,2.088a9.471,9.471,0,0,0-6.748,9.07,9.459,9.459,0,0,1-1.572,5.221A21.709,21.709,0,0,0,56.547,53.8Z" fill="#cc996a"/>
      <circle id="Elipse_4061" data-name="Elipse 4061" cx="6.855" cy="6.855" r="6.855" transform="translate(24.677 16.452)" fill="#d5883e"/>
      <path id="Trazado_100555" data-name="Trazado 100555" d="M24.677,23.306a6.792,6.792,0,0,0,1.572,4.32A6.829,6.829,0,0,0,34.211,17a6.855,6.855,0,0,0-9.534,6.306Z" fill="#f0ae42"/>
      <circle id="Elipse_4062" data-name="Elipse 4062" cx="6.855" cy="6.855" r="6.855" transform="translate(10.968 30.161)" fill="#4d8c28"/>
      <circle id="Elipse_4063" data-name="Elipse 4063" cx="6.855" cy="6.855" r="6.855" transform="translate(10.968 49.355)" fill="#3d54bd"/>
      <path id="Trazado_100556" data-name="Trazado 100556" d="M10.968,37.016a6.792,6.792,0,0,0,1.572,4.32A6.829,6.829,0,0,0,20.5,30.71a6.855,6.855,0,0,0-9.534,6.306Z" fill="#6bc13b"/>
      <path id="Trazado_100557" data-name="Trazado 100557" d="M10.968,56.209a6.792,6.792,0,0,0,1.572,4.32A6.829,6.829,0,0,0,20.5,49.9a6.855,6.855,0,0,0-9.534,6.306Z" fill="#546ded"/>
      <path id="Trazado_100558" data-name="Trazado 100558" d="M24.677,69.919a6.792,6.792,0,0,0,1.572,4.32,6.829,6.829,0,0,0,7.961-10.626,6.855,6.855,0,0,0-9.534,6.306Z" fill="#d23f34"/>
      <path id="Trazado_100559" data-name="Trazado 100559" d="M86.279,7.071A6.842,6.842,0,0,0,73.348,5.289L54.523,45.242h-3.3A9.571,9.571,0,0,1,44.437,28.9l1.2-1.2A12.043,12.043,0,0,0,35.674,7.239,39.751,39.751,0,0,0,38.69,86.291q1.234.077,2.468.077A40.03,40.03,0,0,0,78.926,59.591,10.556,10.556,0,0,0,77.5,49.9a11.113,11.113,0,0,0-9.037-4.661H65.016L85.382,11.727a6.823,6.823,0,0,0,.9-4.656ZM57.316,52.635l-2.2-2.206,4.467-9.479L62.6,43.96ZM45.277,70.921a23.057,23.057,0,0,0,7.3-4.778,5.484,5.484,0,1,1-7.336,5.147C45.242,71.167,45.269,71.045,45.277,70.921ZM37.614,69.89l.34-.341a10.765,10.765,0,0,0,3.175-7.665,8.149,8.149,0,0,1,5.77-7.757l6.178-1.852L56.05,55.25A20.315,20.315,0,0,1,37.614,69.89ZM33.007,71.81a1.371,1.371,0,0,0,1.267.851h2a5.484,5.484,0,1,1,.051-5.395c-.1.115-.2.234-.311.344l-2.71,2.71a1.371,1.371,0,0,0-.3,1.494ZM68.466,47.984a8.363,8.363,0,0,1,6.8,3.512,7.842,7.842,0,0,1,1.067,7.193A37.105,37.105,0,1,1,36.056,9.955a9.3,9.3,0,0,1,7.65,15.81l-1.206,1.2A12.313,12.313,0,0,0,51.22,47.984h2.01l-.758,1.61L46.112,51.5a10.911,10.911,0,0,0-7.725,10.384,8.089,8.089,0,0,1-.513,2.821,8.226,8.226,0,1,0,1.453,7.765,23.191,23.191,0,0,0,3.2-.61,8.226,8.226,0,1,0,11.986-7.836A23.054,23.054,0,0,0,58.84,55.4l4.51-7.421ZM83.038,10.3,64.051,41.548l-3.233-3.233L75.828,6.464A4.113,4.113,0,0,1,81.654,4.7a4.069,4.069,0,0,1,1.383,5.6Z"/>
      <path id="Trazado_100560" data-name="Trazado 100560" d="M31.532,31.532a8.226,8.226,0,1,0-8.226-8.226A8.226,8.226,0,0,0,31.532,31.532Zm0-13.71a5.484,5.484,0,1,1-5.484,5.484A5.484,5.484,0,0,1,31.532,17.823Z"/>
      <path id="Trazado_100561" data-name="Trazado 100561" d="M17.823,45.242A8.226,8.226,0,1,0,9.6,37.016a8.226,8.226,0,0,0,8.226,8.226Zm0-13.71a5.484,5.484,0,1,1-5.484,5.484,5.484,5.484,0,0,1,5.484-5.484Z"/>
      <path id="Trazado_100562" data-name="Trazado 100562" d="M26.048,56.209a8.226,8.226,0,1,0-8.226,8.226A8.226,8.226,0,0,0,26.048,56.209Zm-8.226,5.484a5.484,5.484,0,1,1,5.484-5.484A5.484,5.484,0,0,1,17.823,61.693Z"/>
    </g>
  </g>
</svg>
