<svg id="cepillo-de-pintura" xmlns="http://www.w3.org/2000/svg" width="85" height="85" viewBox="0 0 85 85">
  <circle id="Elipse_4058" data-name="Elipse 4058" cx="42.5" cy="42.5" r="42.5" fill="#26c6da"/>
  <path id="Trazado_100542" data-name="Trazado 100542" d="M135.624,139.739,115.209,161.95,134.1,180.842a42.98,42.98,0,0,0,4.482.235,42.5,42.5,0,0,0,42.5-42.5,42.98,42.98,0,0,0-.235-4.485l-18.89-18.89Z" transform="translate(-96.083 -96.077)" fill="#127f8d"/>
  <path id="Trazado_100543" data-name="Trazado 100543" d="M316.992,118.054c-3.844,1.06-4.7,5.969-1.591,9.083l7.819-4.115,4.115-7.819Z" transform="translate(-261.46 -96.077)" fill="#ffce00"/>
  <path id="Trazado_100544" data-name="Trazado 100544" d="M334,125.545l2.851-10.343-11.934,11.934C328.027,130.249,332.937,129.389,334,125.545Z" transform="translate(-270.973 -96.077)" fill="#ffa300"/>
  <path id="Trazado_100545" data-name="Trazado 100545" d="M146.784,199.973,143,198.66a72.236,72.236,0,0,0-27.8,32.894l18.625-14.921Z" transform="translate(-96.077 -165.679)" fill="#fb6b56"/>
  <path id="Trazado_100546" data-name="Trazado 100546" d="M146.783,206.569l1.313,3.783a72.236,72.236,0,0,1-32.894,27.8Z" transform="translate(-96.077 -172.275)" fill="#f42520"/>
  <path id="Trazado_100547" data-name="Trazado 100547" d="M290.039,172l-2.548-2.548-4.849,4.849,2.548,2.548,3.228-1.621Z" transform="translate(-235.718 -141.318)" fill="#f42520"/>
  <path id="Trazado_100548" data-name="Trazado 100548" d="M0,0H3.6V6.858H0Z" transform="translate(54.318 30.671) rotate(45)" fill="#c61c1c"/>
</svg>
