<svg xmlns="http://www.w3.org/2000/svg" xmlns:xlink="http://www.w3.org/1999/xlink" width="85" height="85" viewBox="0 0 85 85">
  <defs>
    <clipPath id="clip-path">
      <rect id="Rectángulo_5383" data-name="Rectángulo 5383" width="85" height="85" transform="translate(180 5497)" fill="#fff" stroke="#707070" stroke-width="1"/>
    </clipPath>
  </defs>
  <g id="Enmascarar_grupo_50" data-name="Enmascarar grupo 50" transform="translate(-180 -5497)" clip-path="url(#clip-path)">
    <g id="cepillo-de-pintura_1_" data-name="cepillo-de-pintura (1)" transform="translate(180 5497)">
      <path id="Trazado_100563" data-name="Trazado 100563" d="M30.513,65.122l-10.5-10.5s-9.6-2.414-15.652,8.35S6.343,83.752,6.343,83.752c2.6-4.838,4.086-4.343,9.894-5.7S30.514,72.245,30.513,65.122Z" fill="#7c5748"/>
      <path id="Trazado_100564" data-name="Trazado 100564" d="M23.983,58.592l-3.968-3.968s-9.6-2.414-15.652,8.35S6.343,83.752,6.343,83.752C2.435,69.336,19.274,60.946,23.983,58.592Z" fill="#5f4c44"/>
      <path id="Trazado_100565" data-name="Trazado 100565" d="M7.916,58.354a19.075,19.075,0,0,0-3.552,4.62C-1.7,73.729,6.343,83.752,6.343,83.752c2.6-4.838,4.086-4.343,9.894-5.7a25.1,25.1,0,0,0,3.047-.93,4.894,4.894,0,0,1,.524-3.651A18.765,18.765,0,0,1,12.764,69.4a5.453,5.453,0,0,1-1.336-2.226C10.577,64.617,11.072,61.51,7.916,58.354Z" fill="#db1f16"/>
      <path id="Trazado_100566" data-name="Trazado 100566" d="M7.916,58.354a19.075,19.075,0,0,0-3.552,4.62C-1.7,73.729,6.343,83.752,6.343,83.752c-1.88-6.926,1.029-12.446,5.086-16.582C10.577,64.617,11.072,61.51,7.916,58.354Z" fill="#b22627"/>
      <path id="Trazado_100567" data-name="Trazado 100567" d="M37.6,57.4,26.77,46.574a2.2,2.2,0,0,0-3.107,0l-4.3,4.3a2.2,2.2,0,0,0,0,3.107L30.193,64.8a2.2,2.2,0,0,0,3.107,0l4.3-4.3A2.2,2.2,0,0,0,37.6,57.4Z" fill="#c0c9d2"/>
      <path id="Trazado_100568" data-name="Trazado 100568" d="M23.736,55.193l4.251-4.251a2.228,2.228,0,0,1,3.151,0L26.792,46.6a2.228,2.228,0,0,0-3.151,0L19.39,50.847a2.228,2.228,0,0,0,0,3.151l4.346,4.346A2.228,2.228,0,0,1,23.736,55.193Z" fill="#a6aeba"/>
      <path id="Trazado_100569" data-name="Trazado 100569" d="M36.89,56.695c4.133-.6,10.1-4.3,19.712-13.915C73.266,26.116,86.305,6.266,82.1,2.065S58.054,10.9,41.389,27.566c-9.613,9.613-13.312,15.579-13.915,19.712" fill="#f89e00"/>
      <path id="Trazado_100570" data-name="Trazado 100570" d="M45.2,31.373C35.583,40.986,31.317,46.384,29.83,49.634l-2.355-2.355c.6-4.133,4.3-10.1,13.915-19.712C58.054,10.9,77.9-2.136,82.1,2.065,80.005-.034,61.86,14.709,45.2,31.373Z" fill="#d38302"/>
      <path id="Trazado_100571" data-name="Trazado 100571" d="M83,1.173c-1.818-1.818-5.211-1.525-10.375.9A86.338,86.338,0,0,0,58.059,11.3a1.263,1.263,0,0,0-.237,1.778h0a1.264,1.264,0,0,0,1.764.233C72.91,3.214,79.81,1.556,81.212,2.958c1.094,1.094.415,5.446-5.1,14.112a155.407,155.407,0,0,1-20.4,24.816c-8.105,8.105-14.134,12.512-18.4,13.446l-8.477-8.477c.933-4.262,5.34-10.291,13.446-18.4C46.3,24.439,50.678,20.473,55,16.93a1.26,1.26,0,0,0,.18-1.766h0a1.264,1.264,0,0,0-1.785-.182c-4.384,3.594-8.823,7.616-12.9,11.691-7.8,7.8-12.247,13.712-13.769,18.346a3.463,3.463,0,0,0-3.957.662l-4.3,4.3a3.458,3.458,0,0,0-.939,3.147,15.228,15.228,0,0,0-2.527.228,1.264,1.264,0,0,0-1,1.575h0a1.267,1.267,0,0,0,1.448.911,12.158,12.158,0,0,1,3.933-.056l9.846,9.845c-.3,4.4-4.489,7.7-8.755,9.634a4.707,4.707,0,0,1,.432-1.169,1.323,1.323,0,0,0,.163-.617,1.266,1.266,0,0,0-.91-1.214A17.478,17.478,0,0,1,13.658,68.5c-1.008-1.007-1.223-2.253-1.5-3.83A12.471,12.471,0,0,0,9.7,58.453q.405-.322.827-.609a1.257,1.257,0,0,0,.383-1.652h0a1.264,1.264,0,0,0-1.815-.428,19.162,19.162,0,0,0-5.831,6.578A18.826,18.826,0,0,0,1.877,77.775a23.078,23.078,0,0,0,3.477,6.753A1.263,1.263,0,0,0,6.338,85q.057,0,.115-.005a1.263,1.263,0,0,0,1-.659c1.908-3.543,2.806-3.73,6.587-4.516.726-.151,1.549-.322,2.483-.541a26.711,26.711,0,0,0,9.8-4.532c3.037-2.32,4.855-5.076,5.331-8.044.032,0,.064,0,.1,0a3.437,3.437,0,0,0,2.446-1.013l4.3-4.3a3.463,3.463,0,0,0,.662-3.957c4.635-1.523,10.543-5.967,18.346-13.769A158.023,158.023,0,0,0,78.243,18.426C83.922,9.5,85.522,3.7,83,1.173ZM15.945,76.82c-.9.212-1.71.379-2.422.527-3.416.711-5.248,1.092-7.244,4.033C4.447,78.3,1.23,71.091,5.46,63.58a19.11,19.11,0,0,1,2.4-3.384A10.141,10.141,0,0,1,9.674,65.1c.307,1.776.624,3.612,2.2,5.186a19,19,0,0,0,6.264,3.929,5.91,5.91,0,0,0-.263,2.057C17.207,76.494,16.559,76.677,15.945,76.82ZM36.7,59.613l-4.3,4.3a.934.934,0,0,1-1.321,0L20.26,53.084a.936.936,0,0,1,0-1.322l4.3-4.3a.935.935,0,0,1,1.321,0L36.7,58.292A.935.935,0,0,1,36.7,59.613Z"/>
    </g>
  </g>
</svg>
