<svg xmlns="http://www.w3.org/2000/svg" xmlns:xlink="http://www.w3.org/1999/xlink" width="85" height="85" viewBox="0 0 85 85">
  <defs>
    <clipPath id="clip-path">
      <rect id="Rectángulo_5384" data-name="Rectángulo 5384" width="85" height="85" transform="translate(180 6599)" fill="#26c6da"/>
    </clipPath>
  </defs>
  <g id="Enmascarar_grupo_51" data-name="Enmascarar grupo 51" transform="translate(-180 -6599)" clip-path="url(#clip-path)">
    <g id="lapicera" transform="translate(180 6599)">
      <path id="Trazado_100615" data-name="Trazado 100615" d="M69.826,29.254,55.731,15.159a2.433,2.433,0,0,0-2.839-.5L21.316,30.449a2.516,2.516,0,0,0-1.2,1.295L.2,81.549l1.644,1.644,1.594,1.593,49.8-19.922a2.513,2.513,0,0,0,1.295-1.2L70.324,32.093A2.433,2.433,0,0,0,69.826,29.254Z" fill="#e7e7e7"/>
      <path id="Trazado_100616" data-name="Trazado 100616" d="M54.536,63.669,70.324,32.093a2.433,2.433,0,0,0-.5-2.839l-7.047-7.047L1.818,83.168l.025.025,1.594,1.594,49.8-19.922A2.513,2.513,0,0,0,54.536,63.669Z" fill="#d3d3d8"/>
      <path id="Trazado_100617" data-name="Trazado 100617" d="M71.618,36.973a2.481,2.481,0,0,1-1.748-.717L48.73,15.115a2.49,2.49,0,0,1,.012-3.509L59.631.715a2.563,2.563,0,0,1,3.521,0L84.27,21.833a2.489,2.489,0,0,1,0,3.521L73.379,36.243A2.481,2.481,0,0,1,71.618,36.973Z" fill="#7c75da"/>
      <path id="Trazado_100618" data-name="Trazado 100618" d="M69.87,36.256a2.489,2.489,0,0,0,3.509-.012L84.27,25.355a2.489,2.489,0,0,0,0-3.521L73.711,11.274,59.3,25.685Z" fill="#615ad3"/>
      <path id="Trazado_100619" data-name="Trazado 100619" d="M2.49,84.986A2.49,2.49,0,0,1,.729,80.735L32.071,49.393a2.49,2.49,0,0,1,3.521,3.521L4.251,84.256A2.482,2.482,0,0,1,2.49,84.986Z" fill="#3e5959"/>
      <g id="Grupo_53792" data-name="Grupo 53792">
        <path id="Trazado_100620" data-name="Trazado 100620" d="M2.49,84.986a2.482,2.482,0,0,0,1.761-.73L35.593,52.914a2.489,2.489,0,0,0,0-3.521L.729,84.256A2.482,2.482,0,0,0,2.49,84.986Z" fill="#384949"/>
        <path id="Trazado_100621" data-name="Trazado 100621" d="M37.353,55.1a7.471,7.471,0,1,1,7.471-7.471A7.522,7.522,0,0,1,37.353,55.1Z" fill="#384949"/>
      </g>
      <path id="Trazado_100622" data-name="Trazado 100622" d="M32.1,52.975a7.491,7.491,0,0,0,12.721-5.343,7.447,7.447,0,0,0-2.191-5.28L32.059,52.927Z" fill="#293939"/>
    </g>
  </g>
</svg>
