<svg xmlns="http://www.w3.org/2000/svg" width="85" height="77.404" viewBox="0 0 85 77.404">
  <g id="varita-magica" transform="translate(0 -0.499)">
    <path id="Trazado_100629" data-name="Trazado 100629" d="M55.9,152.084l-8.274-3.123L8.407,188.181a3.1,3.1,0,0,0,0,4.387l7.009,7.008a3.1,3.1,0,0,0,4.387,0l39.219-39.219Zm0,0" transform="translate(-6.253 -123.815)" fill="#4e555c"/>
    <path id="Trazado_100630" data-name="Trazado 100630" d="M38.512,210.692a3.1,3.1,0,0,0,4.387,0l39.219-39.219L79,163.2l-2.41-.91,2.213,5.863L39.579,207.371a3.1,3.1,0,0,1-4.387,0Zm0,0" transform="translate(-29.349 -134.93)" fill="#43494f"/>
    <path id="Trazado_100631" data-name="Trazado 100631" d="M202.736,13.19a4.015,4.015,0,0,1-4.513-.01,1.263,1.263,0,0,0-1.59.175l-.047.047a1.263,1.263,0,0,0-.163,1.585,4.015,4.015,0,0,1,.008,4.507,1.263,1.263,0,0,0,.155,1.6l.057.056a1.258,1.258,0,0,0,1.58.165,4.018,4.018,0,0,1,4.512-.011,1.257,1.257,0,0,0,1.584-.144l.078-.078a1.258,1.258,0,0,0,.144-1.584,4.015,4.015,0,0,1,.011-4.512,1.263,1.263,0,0,0-.176-1.591l-.057-.056a1.256,1.256,0,0,0-1.582-.145Zm0,0" transform="translate(-163.641 -10.405)" fill="#f1cf79"/>
    <path id="Trazado_100632" data-name="Trazado 100632" d="M330.288,270.373a4.016,4.016,0,0,1-4.513-.01,1.263,1.263,0,0,0-1.589.174l-.047.047a1.262,1.262,0,0,0-.163,1.586,4.016,4.016,0,0,1,.008,4.507,1.261,1.261,0,0,0,.155,1.595l.056.056a1.26,1.26,0,0,0,1.58.166,4.016,4.016,0,0,1,4.512-.011,1.258,1.258,0,0,0,1.584-.144l.078-.078a1.259,1.259,0,0,0,.144-1.584,4.017,4.017,0,0,1,.01-4.512,1.264,1.264,0,0,0-.176-1.591l-.056-.056A1.258,1.258,0,0,0,330.288,270.373Zm0,0" transform="translate(-270.018 -224.891)" fill="#f1cf79"/>
    <path id="Trazado_100633" data-name="Trazado 100633" d="M453.265,147.4a4.017,4.017,0,0,0-.01-4.513,1.263,1.263,0,0,1,.175-1.59l.047-.047a1.263,1.263,0,0,1,1.585-.163,4.015,4.015,0,0,0,4.507.008,1.262,1.262,0,0,1,1.595.155l.057.057a1.258,1.258,0,0,1,.165,1.58,4.017,4.017,0,0,0-.011,4.512,1.257,1.257,0,0,1-.144,1.584l-.078.078a1.258,1.258,0,0,1-1.584.144,4.015,4.015,0,0,0-4.512.011,1.264,1.264,0,0,1-1.591-.176l-.057-.057a1.256,1.256,0,0,1-.144-1.582Zm0,0" transform="translate(-377.836 -117.072)" fill="#d4b25f"/>
    <path id="Trazado_100634" data-name="Trazado 100634" d="M283.112,20.229,260.607,42.735l-11.4-11.4L271.717,8.833a3.1,3.1,0,0,1,4.387,0l7.009,7.008a3.1,3.1,0,0,1,0,4.387Zm0,0" transform="translate(-207.838 -6.193)" fill="#f8eed3"/>
    <path id="Trazado_100635" data-name="Trazado 100635" d="M323.681,38.934l-3.32-3.32a3.1,3.1,0,0,1,0,4.387L297.855,62.506l3.32,3.32,22.506-22.506a3.1,3.1,0,0,0,0-4.387Zm0,0" transform="translate(-248.406 -29.284)" fill="#ecd8a4"/>
    <path id="Trazado_100636" data-name="Trazado 100636" d="M313.311,130.156a1.246,1.246,0,0,0,0,1.761l.989.988a1.261,1.261,0,0,0,1.761,0,1.245,1.245,0,0,0,0-1.761l-.988-.988A1.245,1.245,0,0,0,313.311,130.156Zm0,0" transform="translate(-260.993 -107.827)"/>
    <path id="Trazado_100637" data-name="Trazado 100637" d="M380.974,67.473a1.245,1.245,0,0,0,.88-2.126l-.988-.988A1.245,1.245,0,1,0,379.1,66.12l.988.988A1.242,1.242,0,0,0,380.974,67.473Zm0,0" transform="translate(-315.863 -52.954)"/>
    <path id="Trazado_100638" data-name="Trazado 100638" d="M344.593,97.01a1.245,1.245,0,1,0-.167,2.484,3.821,3.821,0,0,0,4.021-4.022,1.245,1.245,0,1,0-2.484.167,1.333,1.333,0,0,1-1.37,1.37Zm0,0" transform="translate(-286.277 -78.237)"/>
    <path id="Trazado_100639" data-name="Trazado 100639" d="M189.427,15.782a2.573,2.573,0,0,0,1.832.792,2.483,2.483,0,0,0,1.37-.41,2.844,2.844,0,0,1,1.58-.494,2.878,2.878,0,0,1,1.569.486,2.552,2.552,0,0,0,1.394.416,2.58,2.58,0,0,0,2.136-3.945,2.769,2.769,0,0,1,.008-3.148,2.59,2.59,0,0,0-2.145-3.936,2.55,2.55,0,0,0-1.392.416,2.881,2.881,0,0,1-1.569.487,2.839,2.839,0,0,1-1.58-.495,2.486,2.486,0,0,0-1.367-.409,2.593,2.593,0,0,0-2.158,3.94,2.767,2.767,0,0,1,.006,3.145,2.5,2.5,0,0,0,.318,3.155Zm1.759-7.665c0-.007.072-.084.075-.084a5.26,5.26,0,0,0,5.877.013c.016-.01.028-.012.023-.018l.073.083a5.233,5.233,0,0,0-.014,5.875c.01.016.012.027.014.029l-.064.067a.066.066,0,0,1-.034-.012,5.261,5.261,0,0,0-5.875.014h0l-.074-.065a.056.056,0,0,1,.012-.032,5.232,5.232,0,0,0-.01-5.87Zm0,0" transform="translate(-157.366 -4.206)"/>
    <path id="Trazado_100640" data-name="Trazado 100640" d="M316.982,272.961a2.589,2.589,0,0,0,1.832.792,2.489,2.489,0,0,0,1.37-.41,2.842,2.842,0,0,1,1.58-.494,2.884,2.884,0,0,1,1.569.486,2.509,2.509,0,0,0,3.222-.385,2.488,2.488,0,0,0,.307-3.143,2.769,2.769,0,0,1,.008-3.148,2.55,2.55,0,0,0-3.536-3.52,2.881,2.881,0,0,1-1.57.487,2.847,2.847,0,0,1-1.579-.494,2.481,2.481,0,0,0-1.367-.409,2.51,2.51,0,0,0-1.787.744,2.553,2.553,0,0,0-.372,3.2,2.768,2.768,0,0,1,.006,3.145,2.5,2.5,0,0,0,.318,3.154Zm1.759-7.665a.018.018,0,0,1,0-.022s.07-.062.073-.062a5.26,5.26,0,0,0,5.877.012c.016-.01.028-.012.022-.018l.073.084a5.232,5.232,0,0,0-.014,5.875c.01.016.012.027.015.029l-.064.067a.063.063,0,0,1-.034-.012,5.262,5.262,0,0,0-5.876.014h0l-.074-.065a.056.056,0,0,1,.012-.032A5.231,5.231,0,0,0,318.742,265.3Zm0,0" transform="translate(-263.745 -218.69)"/>
    <path id="Trazado_100641" data-name="Trazado 100641" d="M446.242,143.669a2.6,2.6,0,0,0,1.846.8,2.484,2.484,0,0,0,1.366-.409,2.844,2.844,0,0,1,1.58-.494,2.884,2.884,0,0,1,1.569.486,2.54,2.54,0,0,0,1.394.416,2.573,2.573,0,0,0,1.829-.8,2.488,2.488,0,0,0,.307-3.143,2.77,2.77,0,0,1,.008-3.148,2.514,2.514,0,0,0-.326-3.145,2.512,2.512,0,0,0-3.211-.374,2.88,2.88,0,0,1-1.569.486,2.847,2.847,0,0,1-1.577-.492,2.509,2.509,0,0,0-3.148.323,2.558,2.558,0,0,0-.383,3.2,2.769,2.769,0,0,1,.007,3.149,2.487,2.487,0,0,0,.307,3.143Zm1.828-7.732.023,0a5.261,5.261,0,0,0,5.87.01c.016-.011.028-.012.035-.008l.056.056a.02.02,0,0,1,.006.016,5.23,5.23,0,0,0-.014,5.875c.01.016.012.027.015.029l-.064.067a.064.064,0,0,1-.034-.012,5.259,5.259,0,0,0-5.874.014s-.079-.061-.079-.061a.059.059,0,0,1,.012-.034,5.231,5.231,0,0,0-.013-5.876Zm0,0" transform="translate(-371.552 -110.872)"/>
    <path id="Trazado_100642" data-name="Trazado 100642" d="M77.409,11.853A4.335,4.335,0,0,0,76.153,8.78L69.144,1.771a4.352,4.352,0,0,0-6.148,0L58.83,5.937A1.245,1.245,0,0,0,60.59,7.7l4.167-4.166a1.859,1.859,0,0,1,2.626,0l7.008,7.008a1.88,1.88,0,0,1,0,2.626L52.767,34.792l-9.635-9.635L57.155,11.134a1.245,1.245,0,0,0-1.761-1.761L1.271,63.5a4.354,4.354,0,0,0,0,6.148L8.28,76.653a4.4,4.4,0,0,0,6.148,0l6.811-6.811a1.245,1.245,0,0,0-1.761-1.761l-6.811,6.811a1.86,1.86,0,0,1-2.626,0L3.032,67.884a1.86,1.86,0,0,1,0-2.627L41.371,26.918l9.635,9.635L23,64.559a1.245,1.245,0,0,0,1.761,1.761L76.153,14.928a4.334,4.334,0,0,0,1.256-3.075Zm0,0" transform="translate(0 0)"/>
  </g>
</svg>
