<svg xmlns="http://www.w3.org/2000/svg" width="60" height="60" viewBox="0 0 60 60">
  <g id="Grupo_54227" data-name="Grupo 54227" transform="translate(-180 -19887.57)">
    <circle id="Elipse_4078" data-name="Elipse 4078" cx="30" cy="30" r="30" transform="translate(180 19887.57)" fill="#26c6da"/>
    <path id="Trazado_101094" data-name="Trazado 101094" d="M13.228,7.364v3.882h-.22a7.411,7.411,0,0,0-4.548,1.326,5.6,5.6,0,0,0-2.19,3.684,5.773,5.773,0,0,1,4.219-1.641A5.385,5.385,0,0,1,14.9,16.637a8.153,8.153,0,0,1,1.641,5.3,7.466,7.466,0,0,1-.959,3.735A6.846,6.846,0,0,1,12.9,28.333a7.7,7.7,0,0,1-3.816.959A7.961,7.961,0,0,1,5.024,28.26a7.1,7.1,0,0,1-2.783-2.952,9.719,9.719,0,0,1-1.025-4.424V18.907a12.312,12.312,0,0,1,1.414-5.925A10.248,10.248,0,0,1,6.665,8.858,11.538,11.538,0,0,1,12.48,7.364ZM8.774,18.424a2.833,2.833,0,0,0-1.641.452,2.875,2.875,0,0,0-.981,1.109v1.473q0,4.026,2.8,4.026a2.272,2.272,0,0,0,1.882-1.007,4.09,4.09,0,0,0,.754-2.524,4.015,4.015,0,0,0-.769-2.546A2.463,2.463,0,0,0,8.774,18.424Z" transform="translate(201 19898.57)" fill="#fff"/>
  </g>
</svg>
