<svg xmlns="http://www.w3.org/2000/svg" width="295" height="148" viewBox="0 0 295 148">
  <g id="Grupo_54227" data-name="Grupo 54227" transform="translate(-534 -96)">
    <rect id="_7dbfc3c72c7cf2c1a069f62b01c47823" data-name="7dbfc3c72c7cf2c1a069f62b01c47823" width="295" height="148" rx="30" transform="translate(534 96)" fill="#fff"/>
    <g id="subtitulos" transform="translate(633 119.993)">
      <path id="Trazado_100765" data-name="Trazado 100765" d="M93.164.007H6.836A6.844,6.844,0,0,0,0,6.843V70.367A6.844,6.844,0,0,0,6.836,77.2H33.645a.971.971,0,0,1,.871.535L43.9,96.261a6.838,6.838,0,0,0,12.2,0l9.387-18.523a.971.971,0,0,1,.871-.535H93.164A6.844,6.844,0,0,0,100,70.367V6.843A6.844,6.844,0,0,0,93.164.007Zm.977,70.36a.978.978,0,0,1-.977.977H66.355a6.8,6.8,0,0,0-6.1,3.746L50.871,93.612a.974.974,0,0,1-1.742,0L39.742,75.09a6.8,6.8,0,0,0-6.1-3.746H6.836a.978.978,0,0,1-.977-.977V6.843a.978.978,0,0,1,.977-.977H93.164a.978.978,0,0,1,.977.977Z" transform="translate(0 0)" fill="#12263f"/>
      <path id="Trazado_100766" data-name="Trazado 100766" d="M125.378,142.8a2.93,2.93,0,0,0-4.127.363,6.55,6.55,0,0,1-5.257,2.314,8.978,8.978,0,1,1,5.017-16.424,2.93,2.93,0,1,0,3.28-4.855,14.838,14.838,0,1,0-8.3,27.139,12.4,12.4,0,0,0,9.746-4.409A2.929,2.929,0,0,0,125.378,142.8Z" transform="translate(-81.4 -97.893)" fill="#12263f"/>
      <path id="Trazado_100767" data-name="Trazado 100767" d="M305.688,142.8a2.93,2.93,0,0,0-4.128.361,6.551,6.551,0,0,1-5.257,2.315,8.978,8.978,0,1,1,5.017-16.424,2.93,2.93,0,1,0,3.28-4.855,14.838,14.838,0,1,0-8.3,27.139,12.4,12.4,0,0,0,9.746-4.408A2.93,2.93,0,0,0,305.688,142.8Z" transform="translate(-226.492 -97.894)" fill="#12263f"/>
    </g>
  </g>
</svg>
