<svg xmlns="http://www.w3.org/2000/svg" width="295" height="148" viewBox="0 0 295 148">
  <g id="Grupo_54228" data-name="Grupo 54228" transform="translate(-954 -96)">
    <rect id="nike-slogan" width="295" height="148" rx="30" transform="translate(954 96)" fill="#fff"/>
    <g id="ilustracion" transform="translate(1020.25 90.291)">
      <path id="Trazado_100768" data-name="Trazado 100768" d="M133.883,54.378H108.649a1.779,1.779,0,1,0,0,3.558h25.234a1.812,1.812,0,0,1,1.809,1.809v62.212a1.81,1.81,0,0,1-1.809,1.808H28.617a1.81,1.81,0,0,1-1.809-1.808V59.745a1.812,1.812,0,0,1,1.809-1.809h49.92L67.191,69.283a1.763,1.763,0,0,0-.414.653L62.5,81.761a1.779,1.779,0,0,0,2.277,2.277L76.6,79.761a1.765,1.765,0,0,0,.652-.414L88.91,67.7h20.434a1.914,1.914,0,0,1,1.913,1.913V112.1a1.914,1.914,0,0,1-1.913,1.913H39.158a1.914,1.914,0,0,1-1.913-1.913V69.6A1.916,1.916,0,0,1,39.158,67.7H62.035a1.779,1.779,0,0,0,0-3.558H39.158a5.477,5.477,0,0,0-5.471,5.471V112.1a5.477,5.477,0,0,0,5.471,5.471h70.186a5.477,5.477,0,0,0,5.471-5.471V69.6a5.477,5.477,0,0,0-5.471-5.464H92.469l22.276-22.283a7.117,7.117,0,1,0-10.064-10.064l-2.874,2.875a1.779,1.779,0,0,0,2.515,2.515l2.874-2.875a3.559,3.559,0,1,1,5.033,5.033L86.916,64.654h0l-11.9,11.9L67.136,79.4l2.847-7.884,14.1-14.1h0L98.807,42.7a1.779,1.779,0,1,0-2.517-2.515L82.1,54.378H28.617a5.374,5.374,0,0,0-5.367,5.367v62.212a5.373,5.373,0,0,0,5.367,5.366H133.883a5.373,5.373,0,0,0,5.367-5.366V59.745a5.373,5.373,0,0,0-5.367-5.367Z" transform="translate(0 0)" fill="#12263f"/>
      <path id="Trazado_100769" data-name="Trazado 100769" d="M96.392,66.077A4.893,4.893,0,1,0,91.5,61.184a4.893,4.893,0,0,0,4.892,4.892Z" transform="translate(28.891 11.252)" fill="#12263f"/>
      <path id="Trazado_100770" data-name="Trazado 100770" d="M96.392,75.827A4.893,4.893,0,1,0,91.5,70.934,4.893,4.893,0,0,0,96.392,75.827Z" transform="translate(28.891 15.38)" fill="#12263f"/>
      <path id="Trazado_100771" data-name="Trazado 100771" d="M47.376,76.854a1.778,1.778,0,0,0,1.025,2.3,19.1,19.1,0,0,0,11.153.6c14.794-3.292,22.6,4.031,22.92,4.338a1.782,1.782,0,1,0,2.491-2.548c-.379-.369-9.425-8.991-26.189-5.266a15.644,15.644,0,0,1-9.109-.45A1.776,1.776,0,0,0,47.376,76.854Z" transform="translate(10.163 19.319)" fill="#12263f"/>
      <path id="Trazado_100772" data-name="Trazado 100772" d="M40.744,67.054a1.781,1.781,0,0,0-1.161,2.232,24.953,24.953,0,0,0,6.1,9.566,1.779,1.779,0,1,0,2.451-2.579,21.654,21.654,0,0,1-5.154-8.059,1.781,1.781,0,0,0-2.232-1.16Z" transform="translate(6.879 15.774)" fill="#12263f"/>
    </g>
  </g>
</svg>
