<svg xmlns="http://www.w3.org/2000/svg" width="124" height="124" viewBox="0 0 124 124">
  <g id="Grupo_54217" data-name="Grupo 54217" transform="translate(-1159 -6339)">
    <circle id="Elipse_4087" data-name="Elipse 4087" cx="62" cy="62" r="62" transform="translate(1159 6339)" fill="#fff"/>
    <g id="regla-de-los-tercios" transform="translate(1170.09 6310.791)">
      <g id="Grupo_54072" data-name="Grupo 54072" transform="translate(8 56)">
        <path id="Trazado_100795" data-name="Trazado 100795" d="M88.975,56H12.845A4.85,4.85,0,0,0,8,60.845v59.52a4.85,4.85,0,0,0,4.845,4.845h76.13a4.85,4.85,0,0,0,4.845-4.845V60.845A4.85,4.85,0,0,0,88.975,56Zm2.076,64.365a2.078,2.078,0,0,1-2.076,2.076H12.845a2.078,2.078,0,0,1-2.076-2.076V60.845a2.078,2.078,0,0,1,2.076-2.076h76.13a2.078,2.078,0,0,1,2.076,2.076Z" transform="translate(-8 -56)"/>
        <path id="Trazado_100796" data-name="Trazado 100796" d="M113.362,88H41.384A1.384,1.384,0,0,0,40,89.384v55.368a1.384,1.384,0,0,0,1.384,1.384h71.978a1.384,1.384,0,0,0,1.384-1.384V89.384A1.384,1.384,0,0,0,113.362,88ZM93.983,101.842a2.768,2.768,0,1,1,2.768,2.768A2.768,2.768,0,0,1,93.983,101.842Zm1.384,5.362v19.728a5.558,5.558,0,0,0-3.978,3.978H63.356a5.558,5.558,0,0,0-3.978-3.978V107.2a5.558,5.558,0,0,0,3.978-3.978H91.39A5.557,5.557,0,0,0,95.368,107.2ZM59.379,90.768H95.368V96.48a5.558,5.558,0,0,0-3.978,3.978H63.356a5.558,5.558,0,0,0-3.978-3.978Zm1.384,11.074a2.768,2.768,0,1,1-2.768-2.768A2.768,2.768,0,0,1,60.763,101.842ZM42.768,90.768H56.61V96.48a5.558,5.558,0,0,0-3.978,3.978H42.768Zm0,12.458h9.864A5.558,5.558,0,0,0,56.61,107.2v19.728a5.558,5.558,0,0,0-3.978,3.978H42.768ZM56.61,143.368H42.768v-9.689h9.864a5.558,5.558,0,0,0,3.978,3.978Zm-1.384-11.074a2.768,2.768,0,1,1,2.768,2.768A2.768,2.768,0,0,1,55.226,132.294Zm40.141,11.074H59.379v-5.712a5.557,5.557,0,0,0,3.978-3.978H91.39a5.558,5.558,0,0,0,3.978,3.978Zm-1.384-11.074a2.768,2.768,0,1,1,2.768,2.768A2.768,2.768,0,0,1,93.983,132.294Zm17.994,11.074H98.136v-5.712a5.558,5.558,0,0,0,3.978-3.978h9.864Zm0-12.458h-9.864a5.558,5.558,0,0,0-3.978-3.978V107.2a5.558,5.558,0,0,0,3.978-3.978h9.864Zm0-30.452h-9.864a5.558,5.558,0,0,0-3.978-3.978V90.768h13.842Z" transform="translate(-34.463 -82.463)"/>
      </g>
    </g>
  </g>
</svg>
