<svg xmlns="http://www.w3.org/2000/svg" width="124" height="124" viewBox="0 0 124 124">
  <g id="Grupo_54218" data-name="Grupo 54218" transform="translate(-1022 -182.97)">
    <circle id="Elipse_4092" data-name="Elipse 4092" cx="62" cy="62" r="62" transform="translate(1022 182.97)" fill="#fff"/>
    <g id="regla-de-los-tercios" transform="translate(1041.835 210.966)">
      <g id="Grupo_54071" data-name="Grupo 54071" transform="translate(1.462 1.463)">
        <rect id="Rectángulo_5485" data-name="Rectángulo 5485" width="81.171" height="65.083" rx="3" transform="translate(0 0)" fill="#3e3d42"/>
        <path id="Trazado_100794" data-name="Trazado 100794" d="M48,96h70.729v54.407H48Z" transform="translate(-42.662 -90.662)" fill="#83d8f4"/>
        <g id="Grupo_54070" data-name="Grupo 54070" transform="translate(17.551 13.163)">
          <ellipse id="Elipse_4094" data-name="Elipse 4094" cx="4.022" cy="4.388" rx="4.022" ry="4.388" transform="translate(0 0)" fill="#ffda44"/>
          <ellipse id="Elipse_4095" data-name="Elipse 4095" cx="4.022" cy="4.388" rx="4.022" ry="4.388" transform="translate(38.026 0)" fill="#ffda44"/>
          <ellipse id="Elipse_4096" data-name="Elipse 4096" cx="4.022" cy="4.388" rx="4.022" ry="4.388" transform="translate(0 29.982)" fill="#ffda44"/>
          <ellipse id="Elipse_4097" data-name="Elipse 4097" cx="4.022" cy="4.388" rx="4.022" ry="4.388" transform="translate(38.026 29.982)" fill="#ffda44"/>
        </g>
      </g>
      <g id="Grupo_54072" data-name="Grupo 54072" transform="translate(0 0)">
        <path id="Trazado_100795" data-name="Trazado 100795" d="M87.57,56H12.761A4.766,4.766,0,0,0,8,60.761v58.487a4.766,4.766,0,0,0,4.761,4.761H87.57a4.766,4.766,0,0,0,4.761-4.761V60.761A4.766,4.766,0,0,0,87.57,56Zm2.04,63.248a2.042,2.042,0,0,1-2.04,2.04H12.761a2.042,2.042,0,0,1-2.04-2.04V60.761a2.042,2.042,0,0,1,2.04-2.04H87.57a2.042,2.042,0,0,1,2.04,2.04Z" transform="translate(-8 -56)"/>
        <path id="Trazado_100796" data-name="Trazado 100796" d="M112.089,88H41.36A1.36,1.36,0,0,0,40,89.36v54.407a1.36,1.36,0,0,0,1.36,1.36h70.729a1.36,1.36,0,0,0,1.36-1.36V89.36A1.36,1.36,0,0,0,112.089,88ZM93.047,101.6a2.72,2.72,0,1,1,2.72,2.72A2.72,2.72,0,0,1,93.047,101.6Zm1.36,5.269v19.386a5.461,5.461,0,0,0-3.909,3.909H62.951a5.461,5.461,0,0,0-3.909-3.909V106.871a5.461,5.461,0,0,0,3.909-3.909H90.5A5.461,5.461,0,0,0,94.407,106.871ZM59.042,90.72H94.407v5.612a5.461,5.461,0,0,0-3.909,3.909H62.951a5.461,5.461,0,0,0-3.909-3.909ZM60.4,101.6a2.72,2.72,0,1,1-2.72-2.72,2.72,2.72,0,0,1,2.72,2.72ZM42.72,90.72h13.6v5.612a5.461,5.461,0,0,0-3.909,3.909H42.72Zm0,12.242h9.693a5.461,5.461,0,0,0,3.909,3.909v19.386a5.461,5.461,0,0,0-3.909,3.909H42.72Zm13.6,39.445H42.72v-9.521h9.693a5.461,5.461,0,0,0,3.909,3.909Zm-1.36-10.881a2.72,2.72,0,1,1,2.72,2.72A2.72,2.72,0,0,1,54.962,131.525Zm39.445,10.881H59.042v-5.612a5.461,5.461,0,0,0,3.909-3.909H90.5a5.461,5.461,0,0,0,3.909,3.909Zm-1.36-10.881a2.72,2.72,0,1,1,2.72,2.72A2.72,2.72,0,0,1,93.047,131.525Zm17.682,10.881h-13.6v-5.612a5.461,5.461,0,0,0,3.909-3.909h9.693Zm0-12.242h-9.693a5.461,5.461,0,0,0-3.909-3.909V106.871a5.461,5.461,0,0,0,3.909-3.909h9.693Zm0-29.924h-9.693a5.461,5.461,0,0,0-3.909-3.909V90.72h13.6Z" transform="translate(-34.559 -82.559)"/>
      </g>
    </g>
  </g>
</svg>
