<svg xmlns="http://www.w3.org/2000/svg" width="124" height="124" viewBox="0 0 124 124">
  <g id="Grupo_54216" data-name="Grupo 54216" transform="translate(-601.41 -183.41)">
    <circle id="Elipse_4088" data-name="Elipse 4088" cx="62" cy="62" r="62" transform="translate(601.41 183.41)" fill="#fff"/>
    <g id="diseno-grafico" transform="translate(622.56 211.325)">
      <path id="Trazado_100782" data-name="Trazado 100782" d="M16.7,119.736H87.51V174.2H12.618a4.085,4.085,0,0,1-4.085-4.085h0a4.085,4.085,0,0,1,4.085-4.085H16.7Z" transform="translate(-7.171 -107.395)" fill="#90d1f3"/>
      <path id="Trazado_100783" data-name="Trazado 100783" d="M111.932,174.658l8.17,8.17,6.808-6.808,9.532,9.532V162.4H102.4v20.425Z" transform="translate(-86.06 -143.253)" fill="#fff"/>
      <path id="Trazado_100784" data-name="Trazado 100784" d="M102.4,247.373l9.532-8.17,8.17,8.17,6.808-6.808,9.532,9.532v5.447H102.4Z" transform="translate(-86.06 -207.798)" fill="#269bd8"/>
      <g id="Grupo_54066" data-name="Grupo 54066" transform="translate(31.319 24.595)">
        <rect id="Rectángulo_5473" data-name="Rectángulo 5473" width="16.34" height="5.447" transform="translate(25.872 29.957)" fill="#fcbf29"/>
        <circle id="Elipse_4093" data-name="Elipse 4093" cx="2.723" cy="2.723" r="2.723" transform="translate(0 0)" fill="#fcbf29"/>
      </g>
      <g id="Grupo_54067" data-name="Grupo 54067" transform="translate(1.362 12.341)" opacity="0.25">
        <path id="Trazado_100785" data-name="Trazado 100785" d="M8.533,170.118V119.736H27.6c0,30.081,14.3,54.467,44.935,54.467H12.618A4.085,4.085,0,0,1,8.533,170.118Z" transform="translate(-8.533 -119.736)" fill="#269bd8"/>
      </g>
      <path id="Trazado_100786" data-name="Trazado 100786" d="M8.533,127.088h0A4.085,4.085,0,0,1,12.618,123H16.7V68.536H12.618a4.085,4.085,0,0,0-4.085,4.085Z" transform="translate(-7.171 -64.365)" fill="#0d529e"/>
      <g id="Grupo_54068" data-name="Grupo 54068" transform="translate(57.191 54.553)" opacity="0.5">
        <path id="Trazado_100787" data-name="Trazado 100787" d="M367.932,389.716H358.4v-5.447h6.808Z" transform="translate(-358.4 -384.269)" fill="#f28d01"/>
      </g>
      <path id="Trazado_100788" data-name="Trazado 100788" d="M372.017,69.108V65.653a8.17,8.17,0,1,0-11.536-.643,7.926,7.926,0,0,0,.643.643v3.455Z" transform="translate(-301.21 -49.958)" fill="#fcbf29"/>
      <g id="Grupo_54069" data-name="Grupo 54069" transform="translate(57.194 2.401)" opacity="0.5">
        <path id="Trazado_100789" data-name="Trazado 100789" d="M369.99,69.425a8.171,8.171,0,0,1-7.217-11.983,8.157,8.157,0,0,0-1.634,13.294v3.455h10.894V70.736a8.255,8.255,0,0,0,1.757-2.251A8.121,8.121,0,0,1,369.99,69.425Z" transform="translate(-358.418 -57.442)" fill="#f28d01"/>
      </g>
      <path id="Trazado_100790" data-name="Trazado 100790" d="M80.339,53.377H74.782a9.532,9.532,0,1,0-18.843,0H10.894V46.568a1.362,1.362,0,0,0-1.362-1.362H5.447A5.447,5.447,0,0,0,0,50.653V105.12a5.447,5.447,0,0,0,5.447,5.447H80.339a1.362,1.362,0,0,0,1.362-1.362V54.738A1.362,1.362,0,0,0,80.339,53.377Zm-14.979-8.17A6.8,6.8,0,0,1,69.9,57.079a1.36,1.36,0,0,0-.454,1.013v2.093H66.722V56.664l3.686-3.686-1.925-1.925-3.122,3.122-3.122-3.122-1.925,1.925L64,56.664v3.521H61.276V58.092a1.364,1.364,0,0,0-.452-1.013,6.8,6.8,0,0,1,4.537-11.872ZM2.723,50.653A2.723,2.723,0,0,1,5.447,47.93H8.17V99.674H5.447a5.4,5.4,0,0,0-2.723.731V50.653Zm76.254,57.191H5.447a2.723,2.723,0,1,1,0-5.447H9.532a1.362,1.362,0,0,0,1.362-1.362V56.1H56.768a9.491,9.491,0,0,0,1.784,2.572v1.513H55.829v2.723H74.892V60.185H72.169V58.672A9.552,9.552,0,0,0,73.954,56.1h5.023v51.744Z" transform="translate(0 -42.397)"/>
      <path id="Trazado_100791" data-name="Trazado 100791" d="M129.271,153.869H95.229a1.362,1.362,0,0,0-1.362,1.362v28.6a1.362,1.362,0,0,0,1.362,1.362h34.042a1.362,1.362,0,0,0,1.362-1.362v-28.6A1.362,1.362,0,0,0,129.271,153.869Zm-1.362,2.723v18.5l-7.207-7.207a1.363,1.363,0,0,0-1.925,0l-5.846,5.846-7.207-7.207a1.361,1.361,0,0,0-1.849-.071L96.59,172.7v-16.1ZM96.59,182.464v-6.182l8.1-6.945,10,10,1.925-1.925-1.761-1.758,4.883-4.883,8.17,8.17v3.521H96.59Z" transform="translate(-78.888 -136.081)"/>
      <rect id="Rectángulo_5474" data-name="Rectángulo 5474" width="2.723" height="2.723" transform="translate(61.276 24.595)"/>
      <rect id="Rectángulo_5475" data-name="Rectángulo 5475" width="8.17" height="2.723" transform="translate(66.722 24.595)"/>
      <rect id="Rectángulo_5476" data-name="Rectángulo 5476" width="19.064" height="2.723" transform="translate(55.829 30.042)"/>
      <rect id="Rectángulo_5477" data-name="Rectángulo 5477" width="19.064" height="2.723" transform="translate(55.829 35.488)"/>
      <rect id="Rectángulo_5478" data-name="Rectángulo 5478" width="19.064" height="2.723" transform="translate(55.829 40.935)"/>
      <rect id="Rectángulo_5479" data-name="Rectángulo 5479" width="13.617" height="2.723" transform="translate(55.829 46.382)"/>
      <rect id="Rectángulo_5480" data-name="Rectángulo 5480" width="29.957" height="2.723" transform="translate(21.787 53.19)"/>
      <rect id="Rectángulo_5481" data-name="Rectángulo 5481" width="36.765" height="2.723" transform="translate(14.979 58.637)"/>
      <path id="Trazado_100792" data-name="Trazado 100792" d="M191.818,196.173a4.085,4.085,0,1,0-4.085-4.085A4.085,4.085,0,0,0,191.818,196.173Zm0-5.447a1.362,1.362,0,1,1-1.362,1.362A1.362,1.362,0,0,1,191.818,190.726Z" transform="translate(-157.776 -164.768)"/>
      <rect id="Rectángulo_5482" data-name="Rectángulo 5482" width="2.723" height="2.723" transform="translate(21.787 23.233)"/>
      <rect id="Rectángulo_5483" data-name="Rectángulo 5483" width="2.723" height="2.723" transform="translate(42.212 25.957)"/>
      <rect id="Rectángulo_5484" data-name="Rectángulo 5484" width="2.723" height="2.723" transform="translate(14.979 53.19)"/>
      <path id="Trazado_100793" data-name="Trazado 100793" d="M367.569,375.736h-16.34a1.362,1.362,0,0,0-1.362,1.362v5.447a1.362,1.362,0,0,0,1.362,1.362h16.34a1.362,1.362,0,0,0,1.362-1.362V377.1A1.362,1.362,0,0,0,367.569,375.736Zm-1.362,5.447H352.59v-2.723h13.617Z" transform="translate(-294.038 -322.544)"/>
    </g>
  </g>
</svg>
