<svg xmlns="http://www.w3.org/2000/svg" width="447.882" height="473.861" viewBox="0 0 447.882 473.861">
  <g id="Grupo_54204" data-name="Grupo 54204" transform="translate(529.915 -42.142)">
    <g id="BACKGROUND">
      <circle id="Elipse_4101" data-name="Elipse 4101" cx="119.428" cy="119.428" r="119.428" transform="translate(-429.513 145.577)" fill="#26c6da"/>
    </g>
    <g id="OBJECTS">
      <g id="Grupo_54179" data-name="Grupo 54179">
        <g id="Grupo_54169" data-name="Grupo 54169">
          <path id="Trazado_101017" data-name="Trazado 101017" d="M-112.57,326.507c1.682-1.368,26.856,7.418,26.961,9.273s-26.515,75.633-28.3,76.367-22.007-4.639-22.689-6.164S-116.948,330.069-112.57,326.507Z" fill="#fff"/>
          <path id="Trazado_101018" data-name="Trazado 101018" d="M-109.589,332.464c1.805-1.132,17.449,4.374,18.271,6.059s-4.392,16.166-5.4,17.173-19.127-3.917-19.384-6S-112.232,334.121-109.589,332.464Z" fill="#ffd150"/>
          <path id="Trazado_101019" data-name="Trazado 101019" d="M-106.721,380.215c-1.634,1.011-15.713-4.041-16.444-5.565s4.049-14.555,4.96-15.457,17.228,3.638,17.448,5.515S-104.329,378.735-106.721,380.215Z" fill="#2ea1ff"/>
          <path id="Trazado_101020" data-name="Trazado 101020" d="M-115.708,404.788c-1.478,1.054-13.775-3.5-14.374-4.989s4.049-14.554,4.885-15.478,15.129,3.054,15.264,4.907S-113.543,403.245-115.708,404.788Z" fill="#ff485e"/>
        </g>
        <g id="Grupo_54170" data-name="Grupo 54170">
          <path id="Trazado_101021" data-name="Trazado 101021" d="M-445.2,223.158c.011-1.876,19.73-13.87,21.028-12.919s35.967,59.324,35.476,60.92-15.2,12.157-16.6,11.774S-445.223,228.043-445.2,223.158Z" fill="#fff"/>
          <path id="Trazado_101022" data-name="Trazado 101022" d="M-439.575,224.442c.237-1.829,12.523-9.256,14.1-8.879s8.389,11.828,8.509,13.053-13.139,10.629-14.67,9.657S-439.921,227.12-439.575,224.442Z" fill="#2ea1ff"/>
          <path id="Trazado_101023" data-name="Trazado 101023" d="M-406.081,248.791c-.223,1.649-11.344,8.279-12.764,7.93s-7.5-10.712-7.6-11.817,11.907-9.514,13.283-8.629S-405.754,246.378-406.081,248.791Z" fill="#ff485e"/>
          <path id="Trazado_101024" data-name="Trazado 101024" d="M-394.6,268.315c-.108,1.568-9.917,7.281-11.241,6.863s-7.5-10.713-7.658-11.779,10.363-8.432,11.676-7.5S-394.441,266.019-394.6,268.315Z" fill="#ffd150"/>
        </g>
        <g id="Grupo_54175" data-name="Grupo 54175">
          <path id="Trazado_101025" data-name="Trazado 101025" d="M-447.314,433.086c1.691-5.677,14.443-1.89,20.661-10.768s-1.644-36.761-32.506-30.822-34.213,27.922-26.426,48.875,30.223,27.873,39.525,21.147,4.471-14.141,1.8-17.472S-448.4,436.743-447.314,433.086Z" fill="#c16240"/>
          <g id="Grupo_54171" data-name="Grupo 54171">
            <path id="Trazado_101026" data-name="Trazado 101026" d="M-456.2,403.847a7.859,7.859,0,0,0-10.4-3.922,7.859,7.859,0,0,0-3.922,10.4,7.858,7.858,0,0,0,10.4,3.922A7.858,7.858,0,0,0-456.2,403.847Z" fill="#893820"/>
            <path id="Trazado_101027" data-name="Trazado 101027" d="M-457.933,404.631a5.958,5.958,0,0,0-7.883-2.974,5.959,5.959,0,0,0-2.973,7.883,5.958,5.958,0,0,0,7.883,2.973A5.958,5.958,0,0,0-457.933,404.631Z" fill="#ffd150"/>
          </g>
          <g id="Grupo_54172" data-name="Grupo 54172">
            <path id="Trazado_101028" data-name="Trazado 101028" d="M-468.159,422.683a7.858,7.858,0,0,0-10.4-3.923,7.859,7.859,0,0,0-3.922,10.4,7.858,7.858,0,0,0,10.4,3.923A7.859,7.859,0,0,0-468.159,422.683Z" fill="#893820"/>
            <path id="Trazado_101029" data-name="Trazado 101029" d="M-469.891,423.466a5.957,5.957,0,0,0-7.883-2.973,5.956,5.956,0,0,0-2.973,7.882,5.956,5.956,0,0,0,7.882,2.973A5.957,5.957,0,0,0-469.891,423.466Z" fill="#1239c6"/>
          </g>
          <g id="Grupo_54173" data-name="Grupo 54173">
            <path id="Trazado_101030" data-name="Trazado 101030" d="M-461.1,442.91a7.857,7.857,0,0,0-10.4-3.922,7.857,7.857,0,0,0-3.922,10.4,7.858,7.858,0,0,0,10.4,3.922A7.859,7.859,0,0,0-461.1,442.91Z" fill="#893820"/>
            <path id="Trazado_101031" data-name="Trazado 101031" d="M-462.831,443.693a5.956,5.956,0,0,0-7.882-2.973,5.956,5.956,0,0,0-2.973,7.882,5.956,5.956,0,0,0,7.882,2.973A5.956,5.956,0,0,0-462.831,443.693Z" fill="#2ea1ff"/>
          </g>
          <g id="Grupo_54174" data-name="Grupo 54174">
            <path id="Trazado_101032" data-name="Trazado 101032" d="M-433.641,403.891a7.859,7.859,0,0,0-10.4-3.922,7.858,7.858,0,0,0-3.923,10.4,7.86,7.86,0,0,0,10.4,3.922A7.859,7.859,0,0,0-433.641,403.891Z" fill="#893820"/>
            <path id="Trazado_101033" data-name="Trazado 101033" d="M-435.374,404.674a5.957,5.957,0,0,0-7.882-2.973,5.957,5.957,0,0,0-2.973,7.883,5.957,5.957,0,0,0,7.882,2.973A5.957,5.957,0,0,0-435.374,404.674Z" fill="#ff485e"/>
          </g>
          <path id="Trazado_101034" data-name="Trazado 101034" d="M-451.635,450.506a3.217,3.217,0,0,0-4.146,1.875,3.218,3.218,0,0,0,1.875,4.146,3.218,3.218,0,0,0,4.146-1.875A3.217,3.217,0,0,0-451.635,450.506Z" fill="#893820"/>
        </g>
        <g id="Grupo_54176" data-name="Grupo 54176">
          <path id="Trazado_101035" data-name="Trazado 101035" d="M-440.393,119.33c-1.545-2.465-82.363,20.4-84.606,25.909s12.587,53.938,15.786,56.8,79.636-19.385,82.089-22.458S-437.248,124.351-440.393,119.33Z" fill="#2b2b2b"/>
          <path id="Trazado_101036" data-name="Trazado 101036" d="M-501.072,143.449c.673-1.847,55.844-19.78,57.9-18.622s11.463,44.725,10.688,46.57-54.159,18.282-55.533,17S-502.868,148.376-501.072,143.449Z" fill="#3a3a3a"/>
          <rect id="Rectángulo_5508" data-name="Rectángulo 5508" width="10.249" height="6.406" rx="1.361" transform="translate(-518.264 151.483) rotate(-17.026)" fill="#3a3a3a"/>
          <rect id="Rectángulo_5509" data-name="Rectángulo 5509" width="10.249" height="6.406" rx="1.361" transform="translate(-515.212 161.446) rotate(-17.026)" fill="#3a3a3a"/>
          <rect id="Rectángulo_5510" data-name="Rectángulo 5510" width="10.249" height="6.406" rx="1.361" transform="translate(-510.186 177.861) rotate(-17.026)" fill="#3a3a3a"/>
          <rect id="Rectángulo_5511" data-name="Rectángulo 5511" width="10.249" height="6.406" rx="1.361" transform="translate(-507.135 187.824) rotate(-17.026)" fill="#3a3a3a"/>
        </g>
        <g id="Grupo_54178" data-name="Grupo 54178">
          <g id="Grupo_54177" data-name="Grupo 54177">
            <path id="Trazado_101037" data-name="Trazado 101037" d="M-141.382,438.32c-1.266-.593-41.832,29.444-41.628,30.647s79.717,21.838,81.054,20.228S-138.1,439.86-141.382,438.32ZM-163,465.947c-.1-.6,19.945-15.438,20.571-15.145,1.625.761,20.144,24.345,19.483,25.14S-162.9,466.541-163,465.947Z" fill="#ffd150"/>
          </g>
          <path id="Trazado_101038" data-name="Trazado 101038" d="M-138.5,442.927c-.28-.61-2.667,1.458-2.218,1.966S-138.22,443.537-138.5,442.927Z" fill="#ffa440"/>
          <path id="Trazado_101039" data-name="Trazado 101039" d="M-133.609,448.372c-.28-.61-2.667,1.458-2.218,1.966S-133.329,448.982-133.609,448.372Z" fill="#ffa440"/>
          <path id="Trazado_101040" data-name="Trazado 101040" d="M-129.212,454.172c-.279-.61-2.667,1.458-2.218,1.966S-128.932,454.782-129.212,454.172Z" fill="#ffa440"/>
          <path id="Trazado_101041" data-name="Trazado 101041" d="M-124.32,459.617c-.28-.61-2.668,1.458-2.219,1.966S-124.041,460.227-124.32,459.617Z" fill="#ffa440"/>
          <path id="Trazado_101042" data-name="Trazado 101042" d="M-120.215,465.313c-.246-.624-2.743,1.311-2.322,1.843S-119.968,465.937-120.215,465.313Z" fill="#ffa440"/>
          <path id="Trazado_101043" data-name="Trazado 101043" d="M-115.626,471.015c-.246-.624-2.743,1.311-2.322,1.843S-115.38,471.639-115.626,471.015Z" fill="#ffa440"/>
          <path id="Trazado_101044" data-name="Trazado 101044" d="M-111.55,477.045c-.246-.624-2.743,1.312-2.322,1.843S-111.3,477.669-111.55,477.045Z" fill="#ffa440"/>
          <path id="Trazado_101045" data-name="Trazado 101045" d="M-106.961,482.747c-.247-.624-2.743,1.312-2.322,1.843S-106.715,483.372-106.961,482.747Z" fill="#ffa440"/>
        </g>
      </g>
      <g id="Grupo_54199" data-name="Grupo 54199">
        <path id="Trazado_101046" data-name="Trazado 101046" d="M-187.244,379.262A134.13,134.13,0,0,0-166.865,351.4c9.552-17.194,13.9-40.8,9.778-46.67s-21.082,12.232-21.082,12.232Z" fill="#f57c00"/>
        <g id="Grupo_54198" data-name="Grupo 54198">
          <g id="Grupo_54180" data-name="Grupo 54180">
            <path id="Trazado_101047" data-name="Trazado 101047" d="M-341.291,439.068s-1.439,7.739-4.679,19.616-14.577,41.033-18.716,41.932c-1.7.369-5.234-3.16-8.82-7.453-1.3,13.64-1.825,22.84-1.825,22.84h33.77l17.547-53.539-3.059-12.778C-334.812,446.987-341.291,439.068-341.291,439.068Z" fill="#8f93aa"/>
            <path id="Trazado_101048" data-name="Trazado 101048" d="M-286.219,409.31c-4.229-21.248-4.232-21.262-4.232-21.262l-65.867-3.6s-.84,4.224-2.146,11.07c8.409,4.3,24.489,11.464,42.908,14.218A89.273,89.273,0,0,0-286.219,409.31Z" fill="#8f93aa"/>
            <path id="Trazado_101049" data-name="Trazado 101049" d="M-286.219,409.31a89.273,89.273,0,0,1-29.337.424c-18.419-2.754-34.5-9.915-42.908-14.218-2.519,13.2-6.773,36.168-10.091,57.5-2.278,14.639-3.878,28.9-4.951,40.147,3.586,4.293,7.124,7.822,8.82,7.453,4.139-.9,15.477-30.054,18.716-41.932s4.679-19.616,4.679-19.616,6.479,7.919,14.218,10.618l3.059,12.778L-310.607,516h38.873s-4.319-55.609-11.518-91.782C-284.422,418.342-285.4,413.433-286.219,409.31Z" fill="#b7bbce"/>
          </g>
          <g id="Grupo_54187" data-name="Grupo 54187">
            <g id="Grupo_54185" data-name="Grupo 54185">
              <g id="Grupo_54183" data-name="Grupo 54183">
                <g id="Grupo_54181" data-name="Grupo 54181">
                  <path id="Trazado_101050" data-name="Trazado 101050" d="M-440,326.86s-3.824,3.285-3.689,5.489a3.72,3.72,0,0,0,1.843,3.059s-3.372,1.762-3.283,4.75a4.752,4.752,0,0,0,2.97,4.075s-4.051,2.971-.406,6.7,11.429,3.056,14.263,2.921,9.268-1.26,9.268-1.26l-11.809-20.876Z" fill="#e5906e"/>
                  <path id="Trazado_101051" data-name="Trazado 101051" d="M-449.36,327.58s11.608-.4,11.878,10.8-5.489,14.172-11.878,14.217l-.54,8.458s10.573.556,14.848-4.244,4.679-16.586,3.869-22.39-3.526-11.552-9.718-13.048a54.1,54.1,0,0,0-9-1.619Z" fill="#c40a4d"/>
                  <path id="Trazado_101052" data-name="Trazado 101052" d="M-412.827,345.666s-7.892-14.217-12.7-15.836-9.843,0-10.608.989-6.254,6.659-5.129,7.829,3.869,1.665,9-2.07a19.885,19.885,0,0,0,2.609,7.593c2.07,3.025,8.864,13.96,8.864,13.96Z" fill="#ffccb3"/>
                </g>
                <g id="Grupo_54182" data-name="Grupo 54182">
                  <path id="Trazado_101053" data-name="Trazado 101053" d="M-469.7,363.123c8.009-1.215,12.913-10.213,12.778-19.487s-5.579-21.41-14.937-20.735c-5.086.367-8.521,3.869-10.6,6.991.632,7.157,1.607,15.685,2.052,19.644.291,2.579.835,6.181,1.452,9.785C-476.632,361.651-473.451,363.693-469.7,363.123Zm6.029-21.326c.72,6.7-5.669,10.8-5.669,10.8l-1.08-19.706A11.049,11.049,0,0,1-463.667,341.8Zm-9.538-8.548,1.26,18.9a11.22,11.22,0,0,1-6.389-8.509C-479.144,337.433-473.2,333.249-473.2,333.249Z" fill="#ffed83"/>
                  <path id="Trazado_101054" data-name="Trazado 101054" d="M-447.38,315.972c-.3-1.859-11.731-2.654-19.633-2.429s-14.875,3.112-15.82,4.8c-.425.758-.139,5.7.377,11.554,2.08-3.122,5.515-6.624,10.6-6.991,9.358-.675,14.8,11.462,14.937,20.735s-4.769,18.272-12.778,19.487c-3.755.57-6.936-1.472-9.256-3.8,1.1,6.454,2.438,12.914,2.957,13.52.81.945,8.909,2.61,14.758,1.98s11.832-4,13.047-5.489S-446.435,321.776-447.38,315.972Z" fill="#ff485e"/>
                  <path id="Trazado_101055" data-name="Trazado 101055" d="M-471.945,352.145l-1.26-18.9s-5.939,4.184-5.129,10.387A11.22,11.22,0,0,0-471.945,352.145Z" fill="#c16240"/>
                  <path id="Trazado_101056" data-name="Trazado 101056" d="M-463.667,341.8a11.049,11.049,0,0,0-6.749-8.908l1.08,19.706S-462.947,348.5-463.667,341.8Z" fill="#c16240"/>
                </g>
              </g>
              <g id="Grupo_54184" data-name="Grupo 54184">
                <path id="Trazado_101057" data-name="Trazado 101057" d="M-466.366,309.359s-3.78-5.062,0-11.743,7.573-20.044-1.68-29.155c0,0,2.354,6.614-3.179,13.5S-483.1,302.812-466.366,309.359Z" fill="#fff"/>
                <path id="Trazado_101058" data-name="Trazado 101058" d="M-463.61,305.714s-3.17-3.644,1.322-8.5,6.585-11.878,6.585-11.878,6.208,9.246,1.889,14.982S-463.61,305.714-463.61,305.714Z" fill="#fff"/>
              </g>
            </g>
            <g id="Grupo_54186" data-name="Grupo 54186">
              <path id="Trazado_101059" data-name="Trazado 101059" d="M-372.425,322.091c-6.748,17.007-10.8,37.433-10.8,37.433s9.179,6.748,7.739,11.877-25.285.18-39.592-9.358c-3.374-2.249-6.311-4.309-8.855-6.158a15.094,15.094,0,0,0-1.583,4.719c-.45,5.219,15.567,19.256,28.794,26.094s23.935,5.489,26.995,3.96,16.017-23.216,16.017-23.216l5.129-71S-365.676,305.084-372.425,322.091Z" fill="#de7305"/>
              <path id="Trazado_101060" data-name="Trazado 101060" d="M-375.484,371.4c1.44-5.129-7.739-11.877-7.739-11.877s-25.105-21.056-28.794-19.256c-2.83,1.38-8.992,9.536-11.914,15.617,2.544,1.849,5.481,3.909,8.855,6.158C-400.769,371.581-376.924,376.53-375.484,371.4Z" fill="#f57c00"/>
            </g>
          </g>
          <g id="Grupo_54188" data-name="Grupo 54188">
            <path id="Trazado_101061" data-name="Trazado 101061" d="M-303.316,346.116c8.01-1.079,37.161-29.154,37.161-29.154s20.246,38.6,23.935,38.693c2.84.069,11.221-13.079,14.931-19.139-6.5-9.532-17.054-23.685-26.089-29.632-14.217-9.358-39.052-18.9-39.052-18.9l-32.98-1.8-23.169,10.258s-3.78,10.888-7.739,31.134C-344.62,342.967-311.327,347.2-303.316,346.116Z" fill="#ffa726"/>
            <path id="Trazado_101062" data-name="Trazado 101062" d="M-227.289,336.516c-3.71,6.06-12.091,19.208-14.931,19.139-3.689-.09-23.935-38.693-23.935-38.693s-29.151,28.075-37.161,29.154-41.3-3.149-53-18.536c-3.959,20.246-4.5,46.881-4.319,52.19s.63,9.178,2.52,10.978,17.276,7.828,35.273,8.818,33.923-3.959,36.173-6.3,2.069-23.935,6.478-37.612l4.41-13.678s19.346,21.776,27.084,28.075,19.616,13.137,19.616,13.137l7.919-37.253S-223.562,341.984-227.289,336.516Z" fill="#f57c00"/>
          </g>
          <path id="Trazado_101063" data-name="Trazado 101063" d="M-315.114,276.467s-7.193-1.167-10.3,3.422a42.663,42.663,0,0,0-4.453,8.279s7.109,18.176,9.178,18.176,9.358-10.978,9.358-10.978,4.433,13.5,6.4,13.678,16.185-15.567,16.635-19.977-4.409-13.767-9.718-12.732S-315.114,276.467-315.114,276.467Z" fill="#fff"/>
          <g id="Grupo_54193" data-name="Grupo 54193">
            <g id="Grupo_54189" data-name="Grupo 54189">
              <path id="Trazado_101064" data-name="Trazado 101064" d="M-297.534,264.879c.6-7.131,2.044-17.365,2.044-17.365l-19.624,7.045s-.316,7.012-.892,13.093a23.619,23.619,0,0,1-.392,2.512,12.863,12.863,0,0,0,5.791,1.807C-308.115,272.054-302.673,268.611-297.534,264.879Z" fill="#e5906e"/>
              <path id="Trazado_101065" data-name="Trazado 101065" d="M-297.534,264.879c-5.139,3.732-10.581,7.175-13.073,7.092a12.863,12.863,0,0,1-5.791-1.807,71.811,71.811,0,0,1-4.287,12.605s7.041,8.233,9,9.448,17.006-8.773,17.006-8.773-3.037-8.031-3.1-13.633C-297.8,268.6-297.7,266.856-297.534,264.879Z" fill="#ffccb3"/>
            </g>
            <g id="Grupo_54190" data-name="Grupo 54190">
              <path id="Trazado_101066" data-name="Trazado 101066" d="M-263.231,182.618s7.366-3.712,6.821-7.153-9.655,1.349-9.655,1.349,5.1-10.6-1.093-12.147-4.306,9.853-4.306,9.853-3.172-11.338-9.988-14.712-22.676-7.559-26.455-12.958-1.485-9.718-2.025-11.2-19.933,3.856-29.154,21.6a45.418,45.418,0,0,0-3.178,7.8c3.681-5.251,8.452-10.682,13.661-13.1,0,0-3.24,9.088,1.08,9.178s5.759-6.658,5.759-6.658-.36,5.938,2.7,5.579,3.6-7.019,3.6-7.019a21.4,21.4,0,0,0,12.958,15.117c11.158,4.5,24.025,6.839,22.675,18.176,0,0,19.215,1.858,18.014,25.191a43.334,43.334,0,0,0,4.8-10.845A16.918,16.918,0,0,0-263.231,182.618Z" fill="#c16240"/>
              <path id="Trazado_101067" data-name="Trazado 101067" d="M-279.833,186.307c1.35-11.337-11.517-13.677-22.675-18.176a21.4,21.4,0,0,1-12.958-15.117s-.54,6.659-3.6,7.019-2.7-5.579-2.7-5.579-1.44,6.748-5.759,6.658-1.08-9.178-1.08-9.178c-5.209,2.423-9.98,7.854-13.661,13.1-4.7,15.543.114,31.411,15.032,38.725a192.456,192.456,0,0,0,32.417,12.451s3.577,16.483,4.049,16.953,11.116-1.149,11.116-1.149l7.4-6.479A93.254,93.254,0,0,0-261.819,211.5C-260.618,188.165-279.833,186.307-279.833,186.307Z" fill="#893820"/>
            </g>
            <path id="Trazado_101068" data-name="Trazado 101068" d="M-333.047,184.868s2.7,10.64,17.933,12.327,24.753-6.163,24.753-6.163-.809,6.838,3.645,10.752c0,0-3.577,5.308-4.454,14.431s1.349,13.239,1.349,13.239,8.789-11.068,16.913-8.233,7.195,14.1,0,19.706-17.183,0-17.183,0-1.079,8.908-7.288,13.5-18.964,9.786-30.5,6.344-17.142-17.82-13.9-40.359S-333.047,184.868-333.047,184.868Z" fill="#ffccb3"/>
            <g id="Grupo_54192" data-name="Grupo 54192">
              <g id="Grupo_54191" data-name="Grupo 54191">
                <path id="Trazado_101069" data-name="Trazado 101069" d="M-315.114,253.116a12.021,12.021,0,0,0,8.107-.581c4.79-2.079,6.776-6.768,7.5-11.046C-303.631,241.292-312.346,242.241-315.114,253.116Z" fill="#ff888e"/>
                <path id="Trazado_101070" data-name="Trazado 101070" d="M-299.539,232.918c-.495-.989-7.6.765-12.687,2.97-4.082,1.77-10.656,4.815-13.091,5.948a1.221,1.221,0,0,0-.655,1.5,10.617,10.617,0,0,0,.562,1.282c6.183-1.252,18.324-4.237,26.207-9.574A8.67,8.67,0,0,0-299.539,232.918Z" fill="#fff"/>
                <path id="Trazado_101071" data-name="Trazado 101071" d="M-299.2,235.047c-7.883,5.337-20.024,8.322-26.207,9.574a17.532,17.532,0,0,0,10.3,8.495c2.768-10.875,11.483-11.824,15.612-11.627A27.244,27.244,0,0,0-299.2,235.047Z"/>
              </g>
              <path id="Trazado_101072" data-name="Trazado 101072" d="M-324.284,220.411c1.238.13-1.26,5.759-1.08,8.1s2.024,3.8,1.417,4.126-5.556,2.083-4.746-3.316S-325.139,220.321-324.284,220.411Z" fill="#e5906e"/>
              <path id="Trazado_101073" data-name="Trazado 101073" d="M-330.133,219.331c-2.249-.585.135-6.974,2.07-6.209S-327.883,219.916-330.133,219.331Z"/>
              <path id="Trazado_101074" data-name="Trazado 101074" d="M-302.778,222.121c-2.25-.585.135-6.974,2.069-6.209S-300.529,222.705-302.778,222.121Z"/>
              <path id="Trazado_101075" data-name="Trazado 101075" d="M-282.082,231.569s2.879-.176,3.509,1.6-1.755,3.35-1.755,3.35,6.389-.865,7.874-4.954S-277.808,225.09-282.082,231.569Z" fill="#e5906e"/>
              <path id="Trazado_101076" data-name="Trazado 101076" d="M-333.012,204.844c-.448-1.48,3.509-4.634,4.859-4.139s1.347,2.024.921,3.059S-332.427,206.778-333.012,204.844Z" fill="#893820"/>
              <path id="Trazado_101077" data-name="Trazado 101077" d="M-296.777,208.17c-1.331.787-5.337-2.3-5.177-3.734s1.645-1.791,2.752-1.623S-295.037,207.142-296.777,208.17Z" fill="#893820"/>
            </g>
          </g>
          <g id="Grupo_54197" data-name="Grupo 54197">
            <g id="Grupo_54194" data-name="Grupo 54194">
              <path id="Trazado_101078" data-name="Trazado 101078" d="M-179.232,229.5c3.67-1.1,19.65-20.667,29.507-33.083-3.285-12.392-7.26-26.285-10-32.208l-7.718,29.928c1.529.45,5.488,4.679,4.319,9.538s-6.119,7.2-9.538,6.3-6.839-3.06-5.939-9.9,7.558-6.659,7.558-6.659l5.336-29.347c-11.086,10.173-40.519,44.734-40.519,44.734s9.988,10.168,9.988,12.778a7.953,7.953,0,0,1-.7,2.274C-190.386,227.012-182.261,230.408-179.232,229.5Z" fill="#8f93aa"/>
              <path id="Trazado_101079" data-name="Trazado 101079" d="M-178.6,200.075c-.9,6.838,2.519,9,5.939,9.9s8.368-1.44,9.538-6.3-2.79-9.088-4.319-9.538l7.718-29.928c-.8-1.726-1.492-2.778-2.033-2.916-.508-.129-1.923.918-3.949,2.777l-5.336,29.347S-177.7,193.236-178.6,200.075Z"/>
              <path id="Trazado_101080" data-name="Trazado 101080" d="M-143.869,219.6s-2.586-10.847-5.856-23.185c-9.857,12.416-25.837,31.982-29.507,33.083-3.029.909-11.154-2.487-17.706-5.644-2.39,5.817-10.1,19.5-10.1,19.5l48.051,10.258s-2.43-24.925-1.26-26.814S-143.869,219.6-143.869,219.6Z" fill="#676c7f"/>
            </g>
            <g id="Grupo_54195" data-name="Grupo 54195">
              <path id="Trazado_101081" data-name="Trazado 101081" d="M-183.641,243.266a8.954,8.954,0,0,0-2.334-5.407c-19.71-2.751-31.288,2.673-33.569,13.236-2.43,11.248,4.3,16.554,4.3,16.554l1.906-12.415,22.011,4.388,1.205-3.848S-183.461,249.025-183.641,243.266Z" fill="#b7bbce"/>
              <path id="Trazado_101082" data-name="Trazado 101082" d="M-182.039,238.5q-2.021-.372-3.936-.638a8.954,8.954,0,0,1,2.334,5.407c.18,5.759-6.479,12.508-6.479,12.508l-1.205,3.848,33.059,6.59-2.261,10.255s9.189-1.887,10.8-12.955S-159.933,242.57-182.039,238.5Z" fill="#8f93aa"/>
            </g>
            <g id="Grupo_54196" data-name="Grupo 54196">
              <path id="Trazado_101083" data-name="Trazado 101083" d="M-182.382,266.662c-.874-2.1-14.253-8.025-31.616-7.112L-253.378,516H-233.2c9.463-43.543,47.855-220.483,49.2-231.525C-182.472,271.881-181.482,268.821-182.382,266.662Z" fill="#129fb1"/>
              <path id="Trazado_101084" data-name="Trazado 101084" d="M-158.266,266.212a61.548,61.548,0,0,0-55.07-10.978L-214,259.55c17.363-.913,30.742,5.012,31.616,7.112.9,2.159-.09,5.219-1.619,17.816C-185.342,295.52-223.734,472.46-233.2,516h19.861Z" fill="#5bebfe"/>
            </g>
          </g>
        </g>
        <path id="Trazado_101085" data-name="Trazado 101085" d="M-164.1,292.65c-8.207-2.094-14.392-3.1-15.189.8s10.349,6.527,10.349,6.527-10.428-2.308-11.145,1.752,9.628,6.05,9.628,6.05-10.972.079-9.663,3.661,10.812,4.836,10.812,4.836l-2.647,12.007s10.661-4.345,13.684-14.455S-158.178,294.16-164.1,292.65Z" fill="#ffccb3"/>
      </g>
      <g id="Grupo_54203" data-name="Grupo 54203">
        <g id="Grupo_54200" data-name="Grupo 54200">
          <rect id="Rectángulo_5512" data-name="Rectángulo 5512" width="11.362" height="11.362" transform="translate(-202.899 42.142)" fill="#fff"/>
          <rect id="Rectángulo_5513" data-name="Rectángulo 5513" width="11.362" height="11.362" transform="translate(-93.395 151.646)" fill="#fff"/>
          <rect id="Rectángulo_5514" data-name="Rectángulo 5514" width="16.819" height="16.819" transform="translate(-125.809 70.275)" fill="#fff"/>
          <path id="Trazado_101086" data-name="Trazado 101086" d="M-87.213,157.327h-1c0-32.523-9.579-58.526-28.471-77.285-31.935-31.708-80.141-31.714-80.53-31.719l-.008-1h.028c1.406,0,49.3.329,81.208,32C-96.894,98.28-87.213,124.523-87.213,157.327Z" fill="#fff"/>
        </g>
        <g id="Grupo_54201" data-name="Grupo 54201">
          <rect id="Rectángulo_5515" data-name="Rectángulo 5515" width="7.136" height="7.136" transform="translate(-454 496.496) rotate(180)" fill="#fff"/>
          <rect id="Rectángulo_5516" data-name="Rectángulo 5516" width="7.136" height="7.136" transform="translate(-522.779 427.718) rotate(180)" fill="#fff"/>
          <rect id="Rectángulo_5517" data-name="Rectángulo 5517" width="10.564" height="10.564" transform="translate(-502.42 478.826) rotate(180)" fill="#fff"/>
          <path id="Trazado_101087" data-name="Trazado 101087" d="M-526.661,424.15h.628c0,20.427,6.017,36.759,17.882,48.541,20.058,19.916,50.336,19.92,50.58,19.923l.005.628h-.018c-.882,0-30.966-.207-51-20.1C-520.581,461.236-526.661,444.753-526.661,424.15Z" fill="#fff"/>
        </g>
        <g id="Grupo_54202" data-name="Grupo 54202">
          <rect id="Rectángulo_5518" data-name="Rectángulo 5518" width="6.997" height="6.997" transform="translate(-518.202 108.056)" fill="#fff"/>
          <rect id="Rectángulo_5519" data-name="Rectángulo 5519" width="6.997" height="6.997" transform="translate(-469.225 54.535)" fill="#fff"/>
          <rect id="Rectángulo_5520" data-name="Rectángulo 5520" width="11.792" height="11.792" transform="translate(-520.6 52.138)" fill="#fff"/>
          <path id="Trazado_101088" data-name="Trazado 101088" d="M-514.363,111.555h-.683V57.693h49.319v.683h-48.636Z" fill="#fff"/>
        </g>
      </g>
    </g>
  </g>
</svg>
