<svg xmlns="http://www.w3.org/2000/svg" width="85" height="73.257" viewBox="0 0 85 73.257">
  <g id="Grupo_53798" data-name="Grupo 53798" transform="translate(-810 -9248.118)">
    <path id="Trazado_100628" data-name="Trazado 100628" d="M108.575.734a.772.772,0,0,0-.749-.048L81.6,11.627a3.912,3.912,0,0,1-2.42.239L24.905.018A.8.8,0,0,0,23.95.91L30,44.307,32.1,60.439H66.442V55.562H37.1L35.489,41.923l.022-.022-.164-1.174h0L31.418,12.567A3.981,3.981,0,0,1,36.26,8.124l43.587,10.16a.711.711,0,0,0,.509-.048l18.2-7.66a3.941,3.941,0,0,1,3.774.271,3.98,3.98,0,0,1,1.832,3.361v29.11a4.025,4.025,0,0,1-1.768,3.313c-.048.031-.1.048-.144.08l-8.01,4.284a.55.55,0,0,0-.111.048,42.676,42.676,0,0,1-8.457,4.141c-.032.016-.048.016-.08.031s-.064,0-.1.016-.048.032-.08.032a13.041,13.041,0,0,1-3.169.414,6.822,6.822,0,0,1-4.331-1.338A6.935,6.935,0,0,1,75.5,48.573a5.574,5.574,0,0,1,11.148,0v2.8A36.018,36.018,0,0,0,93,47.968v-.1a11.766,11.766,0,0,0-9.906-10.845,12.394,12.394,0,0,0-11.959,4.348,12.794,12.794,0,0,0,.589,14.651,11.832,11.832,0,0,0,12.819,4.459,1.56,1.56,0,0,1,1.879.78,1.915,1.915,0,0,1,.111.191c0,.016.016.016.016.032a.8.8,0,0,1,.032.191,2.639,2.639,0,0,1,.064.35V72.461a.8.8,0,0,0,.8.8H92.22a.8.8,0,0,0,.8-.8V60.517a1.394,1.394,0,0,1,.1-.446,1.557,1.557,0,0,1,.732-1.815l14.779-7.994a.783.783,0,0,0,.318-.637V1.4A.8.8,0,0,0,108.575.734Z" transform="translate(786.059 9248.118)" fill="#727997"/>
    <circle id="Elipse_4064" data-name="Elipse 4064" cx="9.5" cy="9.5" r="9.5" transform="translate(857 9287)" fill="#e38875"/>
  </g>
</svg>
