<svg xmlns="http://www.w3.org/2000/svg" width="85" height="74.375" viewBox="0 0 85 74.375">
  <g id="lazo_1_" data-name="lazo (1)" transform="translate(0)">
    <path id="Trazado_100623" data-name="Trazado 100623" d="M42.5,58.437a62.55,62.55,0,0,1-8.63-.584l.736-5.259a57.2,57.2,0,0,0,7.894.531c20.506,0,37.187-10.724,37.187-23.906S63.006,5.312,42.5,5.312,5.312,16.036,5.312,29.219c0,7.392,5.549,14.514,14.846,19.051l-2.33,4.773C6.664,47.595,0,38.688,0,29.219,0,13.109,19.066,0,42.5,0S85,13.109,85,29.219,65.933,58.437,42.5,58.437Zm0,0" fill="#b0b4b9"/>
    <path id="Trazado_100624" data-name="Trazado 100624" d="M216.813,317.172c-1.371.1-2.757.16-4.168.16a57.2,57.2,0,0,1-7.894-.531l-.736,5.259a62.552,62.552,0,0,0,8.63.584,61.519,61.519,0,0,0,8.728-.625,24.674,24.674,0,0,0-4.56-4.848Zm0,0" transform="translate(-170.146 -264.207)" fill="#9da3aa"/>
    <path id="Trazado_100625" data-name="Trazado 100625" d="M221.322,341.517h-5.312v-2.393a13.9,13.9,0,0,0-11.146-13.6l1.044-5.209a19.223,19.223,0,0,1,15.414,18.8Zm0,0" transform="translate(-170.853 -267.142)" fill="#b0b4b9"/>
    <path id="Trazado_100626" data-name="Trazado 100626" d="M117.25,266.625A10.625,10.625,0,1,1,106.625,256,10.625,10.625,0,0,1,117.25,266.625Zm0,0" transform="translate(-80.063 -213.5)" fill="#e76e54"/>
    <path id="Trazado_100627" data-name="Trazado 100627" d="M144,304h5.313v5.313H144Zm0,0" transform="translate(-120.094 -253.531)" fill="#fff"/>
  </g>
</svg>
