<svg id="surface1" xmlns="http://www.w3.org/2000/svg" width="85" height="85" viewBox="0 0 85 85">
  <path id="Trazado_100573" data-name="Trazado 100573" d="M13.293,20.668H93.9V98.584h-80.6Zm0,0" transform="translate(-11.086 -17.237)" fill="#d9eef7"/>
  <path id="Trazado_100574" data-name="Trazado 100574" d="M13.293,20.668H26.727V98.584H13.293Zm0,0" transform="translate(-11.086 -17.237)" fill="#aac4da"/>
  <path id="Trazado_100575" data-name="Trazado 100575" d="M93.9,52.876l-13.434,9.4V56.906L56.281,58.249,54.938,79.743h5.373l-9.4,13.434L41.5,79.743h5.373L45.534,58.249,26.727,56.906V62.28l-13.434-9.4,13.434-9.4v5.374H45.534l1.344-22.838H41.5l9.4-13.434,9.4,13.434H54.938l1.343,22.838H80.462V43.472Zm0,0" transform="translate(-11.086 -10.487)" fill="#31e8bb"/>
  <path id="Trazado_100576" data-name="Trazado 100576" d="M41.5,26.008h5.373L45.534,48.846H26.727V43.472l-13.434,9.4,13.434,9.4V56.906l18.807,1.343,1.344,21.494H41.5l9.4,13.434v-80.6Zm0,0" transform="translate(-11.086 -10.487)" fill="#1cb28b"/>
  <path id="Trazado_100577" data-name="Trazado 100577" d="M225.6,181.394,208.7,169.569V176.1H186.974l-.562-9.56-2.517.148.7,11.934h26.631v-4.213l9.974,6.982-9.974,6.982v-4.285L184.6,185.571l-1.5,23.952h4.294l-6.982,9.975-6.982-9.975h4.294l-.671-10.743-2.517.158.5,8.064h-6.453l11.825,16.893L192.237,207h-6.453l1.19-19.037,21.731-1.207v6.462Zm0,0" transform="translate(-140.598 -138.894)" fill="#231f20"/>
  <path id="Trazado_100578" data-name="Trazado 100578" d="M16.893,47.885,33.25,49.052l.434,6.96,2.517-.157-.573-9.161L14.371,45.176v4.306L4.4,42.5l9.974-6.982v4.213H35.628L37.12,14.371H32.832L39.813,4.4l6.982,9.974H42.506l.553,9.4,2.517-.148-.4-6.725h6.458L39.813,0,27.988,16.893h6.458l-1.2,20.315H16.893V30.675L0,42.5,16.893,54.325Zm0,0" fill="#231f20"/>
  <path id="Trazado_100579" data-name="Trazado 100579" d="M5.648,207.449H8.17v2.687H5.648Zm0,0" transform="translate(-4.711 -173.009)" fill="#231f20"/>
  <path id="Trazado_100580" data-name="Trazado 100580" d="M5.648,175.082H8.17v2.687H5.648Zm0,0" transform="translate(-4.711 -146.016)" fill="#231f20"/>
  <path id="Trazado_100581" data-name="Trazado 100581" d="M5.648,142.715H8.17V145.4H5.648Zm0,0" transform="translate(-4.711 -119.022)" fill="#231f20"/>
  <path id="Trazado_100582" data-name="Trazado 100582" d="M5.648,110.348H8.17v2.687H5.648Zm0,0" transform="translate(-4.711 -92.029)" fill="#231f20"/>
  <path id="Trazado_100583" data-name="Trazado 100583" d="M5.648,77.977H8.17v2.687H5.648Zm0,0" transform="translate(-4.711 -65.031)" fill="#231f20"/>
  <path id="Trazado_100584" data-name="Trazado 100584" d="M5.648,45.609H8.17V48.3H5.648Zm0,0" transform="translate(-4.711 -38.038)" fill="#231f20"/>
  <path id="Trazado_100585" data-name="Trazado 100585" d="M5.648,13.242H8.17v2.687H5.648Zm0,0" transform="translate(-4.711 -11.044)" fill="#231f20"/>
  <path id="Trazado_100586" data-name="Trazado 100586" d="M38.016,13.242h2.522v2.687H38.016Zm0,0" transform="translate(-31.704 -11.044)" fill="#231f20"/>
  <path id="Trazado_100587" data-name="Trazado 100587" d="M70.383,13.242H72.9v2.687H70.383Zm0,0" transform="translate(-58.698 -11.044)" fill="#231f20"/>
  <path id="Trazado_100588" data-name="Trazado 100588" d="M102.75,13.242h2.522v2.687H102.75Zm0,0" transform="translate(-85.692 -11.044)" fill="#231f20"/>
  <path id="Trazado_100589" data-name="Trazado 100589" d="M135.121,13.242h2.521v2.687h-2.521Zm0,0" transform="translate(-112.689 -11.044)" fill="#231f20"/>
  <path id="Trazado_100590" data-name="Trazado 100590" d="M167.488,13.242h2.521v2.687h-2.521Zm0,0" transform="translate(-139.682 -11.044)" fill="#231f20"/>
  <path id="Trazado_100591" data-name="Trazado 100591" d="M491.16,288.367h2.522v2.687H491.16Zm0,0" transform="translate(-409.62 -240.494)" fill="#231f20"/>
  <path id="Trazado_100592" data-name="Trazado 100592" d="M491.16,320.734h2.522v2.687H491.16Zm0,0" transform="translate(-409.62 -267.487)" fill="#231f20"/>
  <path id="Trazado_100593" data-name="Trazado 100593" d="M491.16,353.1h2.522v2.687H491.16Zm0,0" transform="translate(-409.62 -294.482)" fill="#231f20"/>
  <path id="Trazado_100594" data-name="Trazado 100594" d="M491.16,385.469h2.522v2.687H491.16Zm0,0" transform="translate(-409.62 -321.475)" fill="#231f20"/>
  <path id="Trazado_100595" data-name="Trazado 100595" d="M491.16,417.836h2.522v2.687H491.16Zm0,0" transform="translate(-409.62 -348.469)" fill="#231f20"/>
  <path id="Trazado_100596" data-name="Trazado 100596" d="M491.16,450.2h2.522v2.687H491.16Zm0,0" transform="translate(-409.62 -375.462)" fill="#231f20"/>
  <path id="Trazado_100597" data-name="Trazado 100597" d="M491.16,482.57h2.522v2.687H491.16Zm0,0" transform="translate(-409.62 -402.456)" fill="#231f20"/>
  <path id="Trazado_100598" data-name="Trazado 100598" d="M458.793,482.57h2.522v2.687h-2.522Zm0,0" transform="translate(-382.626 -402.456)" fill="#231f20"/>
  <path id="Trazado_100599" data-name="Trazado 100599" d="M426.426,482.57h2.522v2.687h-2.522Zm0,0" transform="translate(-355.633 -402.456)" fill="#231f20"/>
  <path id="Trazado_100600" data-name="Trazado 100600" d="M394.059,482.57h2.522v2.687h-2.522Zm0,0" transform="translate(-328.639 -402.456)" fill="#231f20"/>
  <path id="Trazado_100601" data-name="Trazado 100601" d="M361.691,482.57h2.521v2.687h-2.521Zm0,0" transform="translate(-301.645 -402.456)" fill="#231f20"/>
  <path id="Trazado_100602" data-name="Trazado 100602" d="M329.324,482.57h2.521v2.687h-2.521Zm0,0" transform="translate(-274.651 -402.456)" fill="#231f20"/>
  <path id="Trazado_100603" data-name="Trazado 100603" d="M296.957,482.57h2.521v2.687h-2.521Zm0,0" transform="translate(-247.658 -402.456)" fill="#231f20"/>
  <path id="Trazado_100604" data-name="Trazado 100604" d="M322.034,47.244h2.522v-33.5H288.367v2.521h33.667Zm0,0" transform="translate(-240.494 -11.461)" fill="#231f20"/>
  <path id="Trazado_100605" data-name="Trazado 100605" d="M8.17,296.461H5.648v33.5H36.464v-2.521H8.17Zm0,0" transform="translate(-4.711 -247.244)" fill="#231f20"/>
  <path id="Trazado_100606" data-name="Trazado 100606" d="M231.727,248.406h2.687v2.521h-2.687Zm0,0" transform="translate(-193.257 -207.167)" fill="#fff"/>
  <path id="Trazado_100607" data-name="Trazado 100607" d="M231.727,216.039h2.687v2.521h-2.687Zm0,0" transform="translate(-193.257 -180.173)" fill="#fff"/>
  <path id="Trazado_100608" data-name="Trazado 100608" d="M231.727,280.773h2.687v2.521h-2.687Zm0,0" transform="translate(-193.257 -234.16)" fill="#fff"/>
  <path id="Trazado_100609" data-name="Trazado 100609" d="M458.3,46.109h2.687v2.521H458.3Zm0,0" transform="translate(-382.213 -38.455)" fill="#fff"/>
  <path id="Trazado_100610" data-name="Trazado 100610" d="M458.3,78.477h2.687V81H458.3Zm0,0" transform="translate(-382.213 -65.448)" fill="#fff"/>
  <path id="Trazado_100611" data-name="Trazado 100611" d="M425.93,46.109h2.687v2.521H425.93Zm0,0" transform="translate(-355.219 -38.455)" fill="#231f20"/>
  <path id="Trazado_100612" data-name="Trazado 100612" d="M37.52,450.7h2.687v2.521H37.52Zm0,0" transform="translate(-31.291 -375.879)" fill="#fff"/>
  <path id="Trazado_100613" data-name="Trazado 100613" d="M69.887,450.7h2.687v2.521H69.887Zm0,0" transform="translate(-58.284 -375.879)" fill="#231f20"/>
  <path id="Trazado_100614" data-name="Trazado 100614" d="M37.52,418.336h2.687v2.521H37.52Zm0,0" transform="translate(-31.291 -348.886)" fill="#231f20"/>
</svg>
