<svg xmlns="http://www.w3.org/2000/svg" width="295" height="148" viewBox="0 0 295 148">
  <g id="Grupo_54048" data-name="Grupo 54048" transform="translate(-154 -3129)">
    <rect id="nike-slogan" width="295" height="148" rx="30" transform="translate(154 3129)" fill="#fff"/>
    <g id="opinion" transform="translate(252.943 3152.999)">
      <path id="Trazado_100750" data-name="Trazado 100750" d="M69.677,344.746a8.938,8.938,0,0,1-8.407,0,1.48,1.48,0,0,0-1.423,2.594,11.894,11.894,0,0,0,11.258,0,1.48,1.48,0,1,0-1.427-2.593Zm0,0" transform="translate(-47.425 -276.593)" fill="#12263f"/>
      <path id="Trazado_100751" data-name="Trazado 100751" d="M72.643,314.452a1.479,1.479,0,1,1-1.479-1.479A1.48,1.48,0,0,1,72.643,314.452Zm0,0" transform="translate(-55.937 -251.235)" fill="#12263f"/>
      <path id="Trazado_100752" data-name="Trazado 100752" d="M101.275,314.452a1.479,1.479,0,1,1-1.479-1.479A1.479,1.479,0,0,1,101.275,314.452Zm0,0" transform="translate(-78.921 -251.235)" fill="#12263f"/>
      <path id="Trazado_100753" data-name="Trazado 100753" d="M94.424,304.41a1.479,1.479,0,0,0-2.624,1.368,14.92,14.92,0,0,1,1.7,6.97v.024a4.42,4.42,0,0,1-4.415,4.414H67.736a4.413,4.413,0,0,1-2.441-.738,7.325,7.325,0,0,0,.986-3.676v-.024a17.946,17.946,0,0,0-1.336-6.812,15.094,15.094,0,0,1,23.312-4.626,1.48,1.48,0,0,0,1.932-2.242,18.014,18.014,0,0,0-5.386-3.2,12.329,12.329,0,1,0-12.775,0,18.121,18.121,0,0,0-8.709,6.98,18.145,18.145,0,0,0-8.7-6.984,12.329,12.329,0,1,0-12.781,0,18.15,18.15,0,0,0-8.7,6.984,18.054,18.054,0,0,0-8.7-6.988,12.329,12.329,0,1,0-12.791,0,18,18,0,0,0-6.213,3.965,1.479,1.479,0,1,0,2.067,2.117,15.095,15.095,0,0,1,24.008,3.986,17.95,17.95,0,0,0-1.336,6.813v.024a7.325,7.325,0,0,0,.986,3.676,4.413,4.413,0,0,1-2.441.738H7.374a4.419,4.419,0,0,1-4.414-4.414v-.024a14.992,14.992,0,0,1,1.234-5.986,1.479,1.479,0,1,0-2.715-1.174A17.926,17.926,0,0,0,0,312.748v.024a7.382,7.382,0,0,0,7.373,7.373H28.726a7.371,7.371,0,0,0,4.415-1.471,7.334,7.334,0,0,0,4.414,1.471H58.907a7.329,7.329,0,0,0,4.414-1.471,7.371,7.371,0,0,0,4.415,1.471H89.088a7.382,7.382,0,0,0,7.373-7.373v-.024a18.092,18.092,0,0,0-2.037-8.338ZM69.042,285.328a9.37,9.37,0,1,1,9.37,9.37A9.381,9.381,0,0,1,69.042,285.328Zm-60.362,0a9.37,9.37,0,1,1,9.37,9.37A9.381,9.381,0,0,1,8.68,285.328Zm30.181,0a9.37,9.37,0,1,1,9.37,9.37A9.381,9.381,0,0,1,38.861,285.328Zm-1.306,31.858a4.42,4.42,0,0,1-4.415-4.414v-.024a15.091,15.091,0,1,1,30.181,0v.024a4.419,4.419,0,0,1-4.414,4.414Zm0,0" transform="translate(0 -219.147)" fill="#12263f"/>
      <path id="Trazado_100754" data-name="Trazado 100754" d="M375.677,344.746a8.938,8.938,0,0,1-8.407,0,1.48,1.48,0,0,0-1.423,2.594,11.894,11.894,0,0,0,11.258,0,1.48,1.48,0,1,0-1.427-2.593Zm0,0" transform="translate(-293.063 -276.593)" fill="#12263f"/>
      <path id="Trazado_100755" data-name="Trazado 100755" d="M378.643,314.452a1.479,1.479,0,1,1-1.479-1.479A1.48,1.48,0,0,1,378.643,314.452Zm0,0" transform="translate(-301.575 -251.235)" fill="#12263f"/>
      <path id="Trazado_100756" data-name="Trazado 100756" d="M407.275,314.452a1.479,1.479,0,1,1-1.479-1.479A1.479,1.479,0,0,1,407.275,314.452Zm0,0" transform="translate(-324.559 -251.235)" fill="#12263f"/>
      <path id="Trazado_100757" data-name="Trazado 100757" d="M222.677,344.746a8.938,8.938,0,0,1-8.408,0,1.48,1.48,0,0,0-1.423,2.594,11.894,11.894,0,0,0,11.258,0,1.48,1.48,0,1,0-1.427-2.593Zm0,0" transform="translate(-170.244 -276.593)" fill="#12263f"/>
      <path id="Trazado_100758" data-name="Trazado 100758" d="M225.643,314.452a1.479,1.479,0,1,1-1.479-1.479A1.48,1.48,0,0,1,225.643,314.452Zm0,0" transform="translate(-178.756 -251.235)" fill="#12263f"/>
      <path id="Trazado_100759" data-name="Trazado 100759" d="M254.275,314.452a1.479,1.479,0,1,1-1.479-1.479A1.479,1.479,0,0,1,254.275,314.452Zm0,0" transform="translate(-201.74 -251.235)" fill="#12263f"/>
      <path id="Trazado_100760" data-name="Trazado 100760" d="M288.479,93.217h20.91a1.479,1.479,0,1,0,0-2.959h-20.91a1.479,1.479,0,1,0,0,2.959Zm0,0" transform="translate(-230.385 -72.453)" fill="#12263f"/>
      <path id="Trazado_100761" data-name="Trazado 100761" d="M288.479,123.217h20.91a1.479,1.479,0,1,0,0-2.959h-20.91a1.479,1.479,0,1,0,0,2.959Zm0,0" transform="translate(-230.385 -96.535)" fill="#12263f"/>
      <path id="Trazado_100762" data-name="Trazado 100762" d="M288.479,153.217h20.91a1.479,1.479,0,1,0,0-2.959h-20.91a1.479,1.479,0,1,0,0,2.959Zm0,0" transform="translate(-230.385 -120.617)" fill="#12263f"/>
      <path id="Trazado_100763" data-name="Trazado 100763" d="M32.635,41.081H39.72c.458,3.851,1.831,6.668,4.092,8.382a9.55,9.55,0,0,0,5.856,1.824,13.916,13.916,0,0,0,2.918-.321,1.7,1.7,0,0,0-.061-3.341A2.645,2.645,0,0,1,50.594,46.4c-.882-1.423-.7-3.794-.416-5.321h9.136a10.082,10.082,0,0,0,4.488-1.05,10.209,10.209,0,0,0,9.47,6.525h9.135c.284,1.528.466,3.9-.416,5.321A2.645,2.645,0,0,1,80.057,53.1a1.708,1.708,0,0,0-1.4,1.644A1.69,1.69,0,0,0,80,56.443a13.907,13.907,0,0,0,2.917.321,9.553,9.553,0,0,0,5.858-1.825c2.261-1.715,3.633-4.531,4.09-8.382h7.085a10.143,10.143,0,0,0,10.135-10.127V15.6A10.143,10.143,0,0,0,99.949,5.477H73.271a10.182,10.182,0,0,0-4.488,1.048A10.151,10.151,0,0,0,59.314,0H41.043a1.479,1.479,0,0,0,0,2.959H59.314a7.18,7.18,0,0,1,7.175,7.168V30.954a7.18,7.18,0,0,1-7.175,7.168H49a1.479,1.479,0,0,0-1.419,1.06c-.163.552-1.536,5.493.489,8.77.055.089.112.176.171.26A6.017,6.017,0,0,1,45.6,47.105c-1.806-1.369-2.832-3.924-3.049-7.591a1.48,1.48,0,0,0-1.477-1.392h-8.44a7.18,7.18,0,0,1-7.175-7.168V10.128a7.18,7.18,0,0,1,7.175-7.168h2.1A1.479,1.479,0,1,0,34.73,0h-2.1A10.142,10.142,0,0,0,22.5,10.128V30.954A10.142,10.142,0,0,0,32.635,41.081ZM69.448,30.954V10.128c0-.195-.007-.388-.018-.58a7.094,7.094,0,0,1,3.84-1.112H99.949a7.18,7.18,0,0,1,7.176,7.168V36.429A7.181,7.181,0,0,1,99.949,43.6H91.51a1.48,1.48,0,0,0-1.477,1.392c-.217,3.668-1.242,6.222-3.048,7.591a6.018,6.018,0,0,1-2.647,1.109c.059-.086.116-.172.171-.261,2.025-3.278.653-8.218.489-8.77A1.479,1.479,0,0,0,83.58,43.6H73.271a7.221,7.221,0,0,1-6.94-5.347,10.093,10.093,0,0,0,3.118-7.3Zm0,0" transform="translate(-18.061)" fill="#12263f"/>
      <path id="Trazado_100764" data-name="Trazado 100764" d="M72,54.962c0,3.107,1.614,9.173,12.424,14.891a2.749,2.749,0,0,0,2.571,0c10.81-5.718,12.424-11.784,12.424-14.891,0-4.745-3.336-8.462-7.595-8.462a9.012,9.012,0,0,0-6.115,2.411A9.012,9.012,0,0,0,79.595,46.5C75.336,46.5,72,50.217,72,54.962Zm7.595-5.5a6.034,6.034,0,0,1,4.361,1.869,2.466,2.466,0,0,0,3.508,0,6.032,6.032,0,0,1,4.361-1.87c3.011,0,4.636,2.836,4.636,5.5,0,4.135-3.917,8.586-10.751,12.223C78.876,63.548,74.959,59.1,74.959,54.962,74.959,52.295,76.583,49.459,79.595,49.459Zm0,0" transform="translate(-57.797 -37.327)" fill="#12263f"/>
    </g>
  </g>
</svg>
