<svg xmlns="http://www.w3.org/2000/svg" width="152" height="152" viewBox="0 0 152 152">
  <g id="Grupo_54214" data-name="Grupo 54214" transform="translate(-304 -6325)">
    <circle id="Elipse_4085" data-name="Elipse 4085" cx="76" cy="76" r="76" transform="translate(304 6325)" fill="#fff"/>
    <g id="funambulista" transform="translate(327.5 6338.14)">
      <g id="Grupo_54060" data-name="Grupo 54060" transform="translate(57.049 99.943)">
        <path id="Trazado_100773" data-name="Trazado 100773" d="M301.563,443.254a3.874,3.874,0,0,1-.281,1.45,148.664,148.664,0,0,1-18.619,2.621,3.651,3.651,0,0,1-3.893-3.29l-.6-4.879,11.573-2.348,9.052,2.728A3.934,3.934,0,0,1,301.563,443.254Z" transform="translate(-278.173 -436.808)" fill="#ff7d95"/>
      </g>
      <g id="Grupo_54061" data-name="Grupo 54061" transform="translate(25.799 96.286)">
        <path id="Trazado_100774" data-name="Trazado 100774" d="M148.153,432.429a3.43,3.43,0,0,1-.3.972,140.464,140.464,0,0,1-18.092-1.947,4.761,4.761,0,0,1-3.668-6.341l2.267-6.136,11.487,4.245,5.977,4.061a5.38,5.38,0,0,1,2.325,5.146Z" transform="translate(-125.8 -418.978)" fill="#ff7d95"/>
      </g>
      <g id="Grupo_54062" data-name="Grupo 54062" transform="translate(32.341 30.101)">
        <path id="Trazado_100775" data-name="Trazado 100775" d="M182.406,168.446l-4.1-29.2a11.342,11.342,0,0,0-2.288-5.36L160.1,113.526a11.343,11.343,0,0,1-2.394-7.487l.435-9.781,22.424,3.05-.229,5.146a11.344,11.344,0,0,0,1.963,6.9l9.368,13.724a11.341,11.341,0,0,1,1.974,6.286l.333,34.738Z" transform="translate(-157.697 -96.257)" fill="#a0c8ff"/>
      </g>
      <g id="Grupo_54063" data-name="Grupo 54063" transform="translate(32.066 15.084)">
        <path id="Trazado_100776" data-name="Trazado 100776" d="M157.078,38.05s-.894-10.44-.691-15.017h27.751s-.419,11.03-4.637,18.067Z" transform="translate(-156.357 -23.033)" fill="#ffc135"/>
      </g>
      <g id="Grupo_54064" data-name="Grupo 54064" transform="translate(28.364 54.543)">
        <path id="Trazado_100777" data-name="Trazado 100777" d="M162.236,231.525l-12.445,29.9-11.487-4.245,11.987-41.743L160.6,228.629A11.237,11.237,0,0,1,162.236,231.525Z" transform="translate(-138.305 -215.438)" fill="#61a2ff"/>
      </g>
      <g id="Grupo_54065" data-name="Grupo 54065" transform="translate(0 13.033)">
        <path id="Trazado_100778" data-name="Trazado 100778" d="M104.861,100.674a2.148,2.148,0,0,0-2.974-1.036,151.569,151.569,0,0,1-19.507,5.62,6.007,6.007,0,0,0-4.113-4.55l-7.609-2.293-.319-33.228a13.35,13.35,0,0,0-2.331-7.422L58.639,44.039a9.35,9.35,0,0,1-1.608-5.651l.206-4.644c4.188-7.4,4.642-18.12,4.66-18.583a2.051,2.051,0,0,0-2.049-2.129H32.1a2.051,2.051,0,0,0-2.049,1.96c-.2,4.428.577,13.861.685,15.15L30.3,39.792a13.4,13.4,0,0,0,2.826,8.841l4.962,6.35L34.771,66.546a2.051,2.051,0,0,0,3.942,1.132l2.5-8.7L49.041,69a9.271,9.271,0,0,1,1.026,1.65L38.714,97.925l-7.853-2.9,2.867-9.985a2.051,2.051,0,0,0-3.942-1.132L26.414,95.647l-2.241,6.064a6.787,6.787,0,0,0-.261,3.825A154.5,154.5,0,0,1,3.343,99.722c-1.216-.453-2.637-.474-3.2.952a2.051,2.051,0,0,0,1.156,2.66c28.11,11.077,59.448,12.022,88.486,4.386a123.869,123.869,0,0,0,13.919-4.386,2.074,2.074,0,0,0,1.156-2.66Zm-49.808,8.047q-2.4.054-4.806.006A7.437,7.437,0,0,0,46.98,102.9l-4.593-3.121,9.16-22.01L55.6,107.37a5.635,5.635,0,0,0,.3,1.328Zm23.218-2.979a1.887,1.887,0,0,1,.093.349c-4.893.954-16.685,2.3-17.049,2.323a1.607,1.607,0,0,1-1.627-1.447l-.3-3.04,2.739-.562,6.4-1.311,8.554,2.577a1.852,1.852,0,0,1,1.189,1.11ZM57.634,17.135c-.314,3.148-1.194,9.171-3.54,13.795L34.7,28.291c-.2-2.566-.551-7.611-.581-11.157H57.634ZM34.4,39.973l.335-7.538,18.343,2.495-.146,3.275a13.478,13.478,0,0,0,2.318,8.146L64.62,60.076a9.259,9.259,0,0,1,1.617,5.149l.317,33.048-7.669,1.572L54.974,72.8a13.472,13.472,0,0,0-2.7-6.329L36.362,46.107A9.3,9.3,0,0,1,34.4,39.973Zm-6.186,65.448a2.7,2.7,0,0,1-.194-2.29l1.557-4.212,9.328,3.447,5.769,3.92a3.35,3.35,0,0,1,1.448,2.284q-1.627-.089-3.252-.219c-4.538-.365-8.909-.956-12.99-1.664a2.708,2.708,0,0,1-1.666-1.267Z" transform="translate(0 -13.033)"/>
        <path id="Trazado_100779" data-name="Trazado 100779" d="M355.855,225.446a2.051,2.051,0,0,0,1.959,2.139l.091,0a2.051,2.051,0,0,0,2.047-1.961A21.215,21.215,0,0,0,357.661,215a2.051,2.051,0,0,0-3.567,2.025A17.355,17.355,0,0,1,355.855,225.446Z" transform="translate(-281.267 -172.759)"/>
        <path id="Trazado_100780" data-name="Trazado 100780" d="M114.017,146.816a2.051,2.051,0,0,0,1.636-3.286c-3.1-4.108-2.4-9.614-2.392-9.693a2.051,2.051,0,0,0-4.062-.57c-.042.293-.969,7.23,3.179,12.732A2.046,2.046,0,0,0,114.017,146.816Z" transform="translate(-86.711 -107.208)"/>
        <path id="Trazado_100781" data-name="Trazado 100781" d="M157.661,310.214a2.05,2.05,0,1,0,1.11-2.679A2.069,2.069,0,0,0,157.661,310.214Z" transform="translate(-125.206 -247.017)"/>
      </g>
    </g>
  </g>
</svg>
